<svg id="svg" xmlns="http://www.w3.org/2000/svg" xmlns:xlink="http://www.w3.org/1999/xlink" width="400" height="400" viewBox="0, 0, 400,400"><g id="svgg"><path id="path0" d="M174.219 1.168 C 25.027 19.338,-49.071 173.582,35.400 290.140 C 35.775 290.657,28.766 308.927,18.280 334.766 C -1.533 383.589,-1.863 384.720,1.587 391.847 C 4.164 397.171,8.926 400.000,15.310 400.000 C 19.959 400.000,22.243 399.080,71.240 377.469 L 122.323 354.938 133.623 358.649 C 183.881 375.153,245.675 371.336,290.727 348.944 C 302.953 342.867,305.078 340.363,305.078 332.031 C 305.078 317.388,293.192 312.594,276.250 320.404 C 232.617 340.520,180.701 342.334,135.802 325.314 C 120.754 319.609,123.944 318.890,82.098 337.419 C 62.584 346.059,46.453 352.964,46.252 352.762 C 46.051 352.561,51.382 338.835,58.099 322.261 C 73.483 284.304,73.343 285.803,62.746 272.499 C -16.361 173.176,64.215 31.974,200.000 31.974 C 329.211 31.974,409.861 158.541,345.661 260.564 C 336.127 275.715,338.434 287.090,351.768 290.680 C 362.014 293.439,368.932 287.085,380.746 264.063 C 432.904 162.422,377.010 43.096,260.885 8.178 C 236.894 0.964,200.239 -2.000,174.219 1.168 M191.612 101.998 C 181.739 107.916,181.784 123.470,191.691 129.276 C 199.118 133.629,209.441 131.117,213.651 123.934 C 221.975 109.731,205.714 93.547,191.612 101.998 M191.612 155.905 C 189.741 157.026,187.449 159.345,186.339 161.239 L 184.375 164.590 184.375 211.719 L 184.375 258.847 186.349 262.215 C 192.179 272.163,207.821 272.163,213.651 262.215 L 215.625 258.847 215.625 211.719 L 215.625 164.590 213.651 161.222 C 209.435 154.028,198.960 151.501,191.612 155.905 " stroke="none" fill="#EEEEEE" fill-rule="evenodd"></path></g></svg>
