<svg id="svg" xmlns="http://www.w3.org/2000/svg" xmlns:xlink="http://www.w3.org/1999/xlink" width="400" height="400" viewBox="0, 0, 400,400"><g id="svgg"><path id="path0" d="M70.703 22.563 C 64.785 25.281,62.500 29.761,62.500 38.647 L 62.500 44.531 38.867 44.536 C 5.366 44.542,0.391 46.865,0.391 62.500 C 0.391 78.135,5.366 80.458,38.867 80.464 L 62.500 80.469 62.517 86.523 C 62.564 102.992,64.741 103.906,103.906 103.906 C 143.072 103.906,145.249 102.992,145.295 86.523 L 145.313 80.469 265.039 80.464 C 341.134 80.462,385.774 80.180,387.532 79.691 C 404.021 75.111,404.021 49.889,387.532 45.309 C 385.934 44.864,371.699 44.538,353.816 44.536 C 318.429 44.531,318.750 44.473,318.750 50.781 C 318.750 57.081,318.473 57.031,353.474 57.031 C 387.630 57.031,387.500 57.010,387.500 62.500 C 387.500 68.472,398.805 67.969,264.696 67.969 L 145.313 67.969 145.313 62.500 L 145.313 57.031 223.864 57.031 L 302.415 57.031 304.332 55.114 C 306.869 52.577,306.869 48.986,304.332 46.449 L 302.415 44.531 223.864 44.531 L 145.313 44.531 145.295 38.477 C 145.270 29.406,142.847 24.939,136.520 22.295 C 131.804 20.325,75.075 20.556,70.703 22.563 M132.422 62.500 L 132.422 91.016 103.906 91.016 L 75.391 91.016 75.185 63.285 C 75.072 48.034,75.151 35.109,75.360 34.565 C 75.659 33.785,81.766 33.618,104.081 33.779 L 132.422 33.984 132.422 62.500 M62.500 62.500 L 62.500 67.969 39.210 67.969 C 13.239 67.969,12.500 67.817,12.500 62.500 C 12.500 57.183,13.239 57.031,39.210 57.031 L 62.500 57.031 62.500 62.500 M236.328 106.157 C 230.410 108.874,228.125 113.355,228.125 122.241 L 228.125 128.125 121.680 128.129 C 54.293 128.132,14.219 128.416,12.468 128.902 C -4.021 133.483,-4.021 158.705,12.468 163.285 C 16.045 164.279,51.219 164.302,53.069 163.311 C 56.742 161.346,56.742 154.279,53.069 152.314 C 52.288 151.896,43.740 151.562,33.792 151.563 C 13.858 151.563,12.500 151.214,12.500 146.094 C 12.500 140.145,2.887 140.625,122.022 140.625 L 228.125 140.625 228.125 146.094 L 228.125 151.563 150.538 151.563 C 73.678 151.562,72.935 151.577,71.251 153.147 C 68.107 156.075,68.350 160.407,71.807 163.061 C 72.762 163.794,90.865 164.019,150.586 164.038 L 228.125 164.063 228.142 170.117 C 228.175 181.876,233.343 187.500,244.116 187.500 L 248.438 187.500 248.438 199.609 L 248.438 211.719 209.375 211.719 L 170.313 211.719 170.313 205.520 C 170.313 196.546,167.912 191.913,161.939 189.357 C 157.517 187.465,99.855 187.849,95.559 189.800 C 90.276 192.199,88.169 196.178,87.685 204.678 L 87.283 211.719 51.259 211.723 C 30.048 211.726,14.097 212.044,12.468 212.496 C -4.021 217.077,-4.021 242.298,12.468 246.879 C 14.097 247.331,30.048 247.649,51.259 247.652 L 87.283 247.656 87.685 254.697 C 88.169 263.197,90.276 267.176,95.559 269.575 C 99.855 271.526,157.517 271.910,161.939 270.018 C 167.912 267.462,170.312 262.829,170.313 253.855 L 170.313 247.656 194.411 247.656 L 218.510 247.656 217.093 251.758 C 213.439 262.335,215.331 279.278,220.344 280.869 C 225.951 282.649,228.020 278.748,228.295 265.874 C 228.540 254.454,229.069 253.033,234.447 249.347 C 238.067 246.865,241.933 247.421,246.659 251.104 C 251.424 254.816,255.406 254.976,258.577 251.581 L 260.749 249.255 261.084 204.901 C 261.387 164.946,261.553 160.296,262.758 158.015 C 266.447 151.031,276.308 150.690,280.456 157.402 C 281.961 159.836,282.031 161.238,282.031 188.818 C 282.031 234.873,281.732 234.499,319.141 235.152 L 341.797 235.547 345.703 237.628 C 358.797 244.603,358.940 245.214,359.206 295.282 C 359.441 339.559,359.376 340.443,355.770 342.086 C 352.483 343.584,256.319 343.302,250.359 341.778 C 235.786 338.050,229.053 327.875,228.225 308.328 C 227.762 297.378,227.632 296.650,225.890 295.242 C 223.276 293.127,219.870 293.340,217.441 295.769 L 215.423 297.787 215.830 310.027 C 216.642 334.458,229.271 351.511,248.633 354.326 L 252.344 354.865 252.344 363.057 C 252.344 379.918,248.951 378.906,305.469 378.906 C 362.005 378.906,358.594 379.927,358.594 363.005 L 358.594 354.761 361.349 353.454 C 365.140 351.654,369.917 346.005,371.032 342.000 C 372.101 338.162,371.852 252.435,370.764 249.414 C 370.136 247.671,370.193 247.656,377.448 247.652 C 381.473 247.649,386.011 247.302,387.532 246.879 C 404.021 242.298,404.021 217.077,387.532 212.496 C 385.866 212.033,366.822 211.726,339.648 211.723 L 294.531 211.719 294.531 199.609 L 294.531 187.500 296.900 187.500 C 305.638 187.500,310.890 180.989,310.920 170.117 L 310.938 164.063 347.852 164.058 C 369.646 164.056,385.899 163.739,387.532 163.285 C 404.021 158.705,404.021 133.483,387.532 128.902 C 385.899 128.449,369.646 128.132,347.852 128.129 L 310.938 128.125 310.920 122.070 C 310.895 113.000,308.472 108.533,302.145 105.889 C 297.429 103.919,240.700 104.149,236.328 106.157 M298.047 146.094 L 298.047 174.609 296.371 174.848 C 294.748 175.080,294.685 174.779,294.389 165.473 C 293.268 130.183,249.219 130.818,249.219 166.125 L 249.219 175.082 245.117 174.846 L 241.016 174.609 240.810 146.879 C 240.697 131.627,240.776 118.703,240.985 118.158 C 241.284 117.379,247.391 117.212,269.706 117.373 L 298.047 117.578 298.047 146.094 M385.790 142.218 C 386.796 143.155,387.500 144.751,387.500 146.094 C 387.500 151.679,388.356 151.563,347.509 151.563 L 310.938 151.563 310.938 146.094 L 310.938 140.625 347.509 140.625 C 383.233 140.625,384.120 140.662,385.790 142.218 M157.422 229.688 L 157.422 258.203 129.349 258.408 C 107.410 258.569,101.140 258.398,100.650 257.627 C 99.925 256.485,99.762 203.873,100.478 202.007 C 100.905 200.894,103.952 200.784,129.189 200.967 L 157.422 201.172 157.422 229.688 M87.500 229.688 L 87.500 235.156 51.710 235.156 C 11.740 235.156,12.500 235.262,12.500 229.688 C 12.500 224.113,11.740 224.219,51.710 224.219 L 87.500 224.219 87.500 229.688 M248.438 229.688 L 248.438 235.156 209.375 235.156 L 170.313 235.156 170.313 229.688 L 170.313 224.219 209.375 224.219 L 248.438 224.219 248.438 229.688 M385.790 225.812 C 386.796 226.748,387.500 228.345,387.500 229.688 C 387.500 234.317,385.368 235.156,373.600 235.156 L 363.120 235.156 359.279 231.703 C 357.167 229.804,353.618 227.343,351.394 226.234 L 347.349 224.219 365.715 224.219 C 383.117 224.219,384.170 224.302,385.790 225.812 M346.094 360.938 L 346.094 366.406 305.469 366.406 L 264.844 366.406 264.844 360.938 L 264.844 355.469 305.469 355.469 L 346.094 355.469 346.094 360.938 " stroke="none" fill="#DA1212" fill-rule="evenodd"></path></g></svg>