<svg version="1.1" id="Layer_1" xmlns="http://www.w3.org/2000/svg" xmlns:xlink="http://www.w3.org/1999/xlink" x="0px" y="0px" width="100%" viewBox="0 0 512 512" enable-background="new 0 0 512 512" xml:space="preserve">




	<path
		fill="#FFF4CF"
		opacity="1.000000"
		stroke="none"
		d="M98.000000,513.000000
			C83.979103,513.000000 69.958214,513.000000 55.228264,512.771912
			C43.434441,501.488220 32.340057,490.442200 21.270931,479.370941
			C18.073195,476.172638 16.471401,472.401825 16.574829,467.735565
			C16.766722,459.077911 16.617420,450.412994 16.633738,441.751129
			C16.650732,432.730499 18.259342,430.506500 26.839987,427.649384
			C45.902809,421.302002 64.958122,414.931580 84.047585,408.665192
			C87.295052,407.599152 89.966667,405.963837 92.390266,403.520905
			C108.227051,387.557922 124.148468,371.678619 140.084473,355.814423
			C150.997772,344.950287 149.168732,347.779327 140.802399,337.015869
			C124.069817,315.489075 112.026985,291.641205 104.739090,265.453888
			C100.286934,249.456161 97.943588,233.144180 97.334961,216.421051
			C96.867630,203.580276 97.617165,190.965622 99.182434,178.323273
			C101.336655,160.924011 106.269379,144.252731 113.073494,128.137085
			C114.194527,125.481888 113.596565,124.255310 111.153069,123.093521
			C105.293037,120.307297 99.437164,117.487206 93.752190,114.366409
			C89.672104,112.126617 85.513573,111.288010 80.875412,111.324600
			C61.387421,111.478340 41.897461,111.392159 22.408239,111.376694
			C13.914423,111.369957 12.356847,110.282112 9.793488,102.418091
			C6.917066,93.593620 4.740819,84.536827 1.000000,76.000000
			C1.000000,72.969406 1.000000,69.938812 1.199443,66.181595
			C8.106228,52.253292 14.858343,39.074020 21.486610,25.832760
			C22.976818,22.855776 24.845787,20.641022 28.142479,19.577497
			C38.265575,16.311752 48.379688,13.008745 58.418800,9.495906
			C63.691540,7.650892 67.277954,9.330201 70.451447,13.620156
			C81.711899,28.842115 93.042847,44.014008 104.544899,59.053577
			C107.131584,62.435802 108.863831,66.719116 112.884186,68.801666
			C120.571968,72.783951 128.370483,76.552032 136.106766,80.441376
			C138.516556,81.652870 140.080261,81.336792 142.041031,79.058510
			C154.967392,64.038918 168.779083,49.987267 185.125610,38.505840
			C210.863464,20.428125 239.111755,8.780885 270.079285,3.450146
			C273.381256,2.881751 277.175201,3.691898 280.000000,1.000000
			C296.354218,1.000000 312.708466,1.000000 329.809479,1.201875
			C334.002289,3.369561 337.947845,2.926341 341.643738,3.526520
			C364.519257,7.241306 386.039398,15.083311 406.131195,26.246029
			C427.421021,38.074368 446.253265,53.188221 462.314148,71.822083
			C477.998840,90.019463 490.282410,110.067741 499.409119,132.210068
			C506.409424,149.193573 509.933990,167.027069 513.000000,185.000000
			C513.000000,200.020889 513.000000,215.041794 512.948914,230.915619
			C511.022430,242.854004 509.340332,253.967804 506.340363,264.841583
			C500.145294,287.296417 490.202515,307.930573 477.187073,327.224152
			C464.789917,345.601196 449.289337,360.947968 432.118195,374.717255
			C429.723907,376.637207 429.514526,378.203094 430.816986,380.578400
			C433.132111,384.800537 435.593781,388.958435 437.631317,393.312927
			C440.749664,399.977417 445.469452,404.845459 451.635406,408.942932
			C467.516876,419.496735 482.989807,430.663269 498.753693,441.397369
			C503.410645,444.568390 504.179352,448.613037 502.792847,453.522522
			C500.091370,463.088135 497.280396,472.622864 494.583710,482.189819
			C493.588531,485.720367 491.713745,488.486664 488.460144,490.269135
			C474.637665,497.841644 460.819641,505.422302 447.000000,513.000000
			C444.629425,513.000000 442.258881,513.000000 439.133667,512.829956
			C429.006866,509.881104 419.635406,507.099976 410.262299,504.324402
			C406.401611,503.181183 402.908325,501.466705 402.742981,496.845551
			C402.558838,491.699097 401.980408,486.578644 401.753967,481.461151
			C401.085480,466.354553 401.064362,451.220398 400.567963,436.104370
			C400.405884,431.168732 400.001160,426.185883 397.364502,421.704102
			C394.419006,416.697388 391.248352,411.763000 388.927765,406.467560
			C387.043549,402.167969 384.936493,401.875275 380.907928,403.464569
			C358.804260,412.184692 335.784424,416.669647 312.054749,417.325012
			C300.600067,417.641357 289.200989,417.061646 277.774719,415.561371
			C264.888489,413.869446 252.330460,411.107880 240.037170,407.063568
			C222.274582,401.219971 205.490005,393.315826 190.109573,382.590393
			C186.782822,380.270508 184.326370,380.437469 181.247299,383.645447
			C170.291260,395.060028 159.592041,406.850586 147.620773,417.130737
			C129.874023,432.370544 117.424492,450.352905 112.826103,473.470612
			C112.472122,475.250244 111.829826,476.993195 111.149178,478.683807
			C106.573296,490.049042 104.844315,502.505829 98.000000,513.000000
		M263.269043,62.501301
			C274.376984,58.820221 285.923706,57.322258 297.486237,56.755363
			C320.146759,55.644363 342.136688,59.312889 363.292938,67.704437
			C370.500549,70.563316 373.254974,74.922943 371.046875,80.491394
			C369.328125,84.825752 364.260345,86.268738 357.663177,83.827385
			C336.393402,75.956253 314.767822,71.558105 291.852325,74.248695
			C259.426544,78.055916 231.710983,91.117561 208.778091,114.337753
			C204.747925,118.418396 204.730881,119.056358 209.238434,122.939484
			C217.298630,129.883133 225.145233,137.049805 232.768814,144.472443
			C235.131180,146.772537 237.687119,149.090149 240.573380,150.597595
			C251.788544,156.455093 263.175446,161.983505 274.490112,167.651031
			C276.397675,168.606552 278.186249,168.848282 280.148621,167.640060
			C290.987183,160.966949 302.677368,159.192734 315.106049,161.652512
			C335.233612,165.635986 349.945129,180.685715 353.121796,200.935669
			C355.477966,215.955154 351.825226,230.057129 341.311371,241.723999
			C339.538055,243.691788 338.772797,245.604614 340.135437,248.006683
			C348.211304,262.243378 353.957764,277.921021 367.029907,289.000549
			C373.618866,294.585205 379.384399,301.140350 385.533539,307.245270
			C391.753845,313.420807 392.097931,313.405945 398.630615,307.126556
			C410.109863,296.092407 419.625854,283.557892 426.688568,269.296082
			C438.888367,244.660843 443.041779,218.643356 439.723602,191.337402
			C437.730957,174.939621 432.474884,159.559097 424.762268,145.180328
			C414.586517,126.209389 400.696747,110.226387 382.904541,97.814758
			C379.721710,95.594460 378.432251,89.297539 380.147919,86.073036
			C381.749451,83.062981 387.414215,81.583870 391.362549,83.334213
			C393.168396,84.134781 394.890869,85.219582 396.474548,86.410370
			C414.392944,99.883461 429.089569,116.255043 439.533295,136.114517
			C460.319702,175.641312 463.429535,216.894440 449.411530,259.108887
			C440.990295,284.468994 426.465393,306.166351 405.749756,323.395233
			C402.706207,325.926514 401.854248,328.457062 404.064423,331.998749
			C406.084320,335.235504 407.541229,338.828003 409.608704,342.029694
			C413.556274,348.142883 415.909485,355.196686 420.674194,361.042328
			C425.184814,359.088440 428.560944,355.819824 431.922058,352.739960
			C453.250000,333.196960 470.303986,310.567749 481.644867,283.757721
			C497.055542,247.326553 500.833435,209.610413 493.125488,171.033371
			C487.772369,144.241989 476.914337,119.540001 460.671936,97.295235
			C447.193817,78.836311 431.213257,62.998341 412.260254,50.338840
			C388.771118,34.649471 363.108459,24.407606 335.041168,19.906218
			C317.650360,17.117107 300.312439,16.474098 282.971558,18.642292
			C255.111404,22.125757 229.133881,31.408628 205.097214,45.989979
			C187.457672,56.690655 172.420120,70.381111 158.945724,85.921906
			C155.812408,89.535744 157.111237,91.117638 160.742905,92.848656
			C168.708832,96.645569 176.749664,100.356819 184.379822,104.761482
			C189.422333,107.672363 192.443710,106.626869 196.298843,102.628998
			C214.773468,83.470360 236.864471,70.093292 263.269043,62.501301
		M224.175812,169.075851
			C230.988419,171.490051 233.002396,174.847961 230.688293,181.568222
			C225.944443,195.344635 224.792053,209.289017 227.346100,223.628540
			C230.117447,239.188080 237.668991,252.212097 248.025543,263.847137
			C250.023422,266.091644 251.780594,266.146271 253.862488,264.005096
			C256.531616,261.259918 259.166595,258.444458 262.104767,256.007111
			C266.093903,252.697952 272.195099,252.802551 274.812622,255.882172
			C278.258026,259.935822 277.721649,264.101318 273.476685,268.733551
			C270.964874,271.474457 267.488556,273.452576 265.999054,277.589996
			C277.571381,284.803192 290.211975,287.707489 303.401978,288.570801
			C310.744873,289.051422 317.916412,287.451782 325.067810,285.922821
			C331.258789,284.599243 335.930328,286.930054 337.150208,291.744751
			C338.317017,296.349945 334.971344,300.807281 329.157959,302.428070
			C322.239227,304.357056 315.112122,305.049225 308.007263,305.293610
			C289.654022,305.924988 272.424927,301.766998 256.705688,292.052795
			C253.875534,290.303833 251.660034,290.343506 249.219009,292.861176
			C242.144470,300.157776 234.934006,307.324341 227.693573,314.457367
			C225.271439,316.843536 225.524017,318.342712 228.361435,320.280884
			C235.105240,324.887451 242.095459,328.971710 249.560028,332.307800
			C278.800629,345.376099 308.890686,348.427948 339.892426,339.888153
			C352.735962,336.350220 352.364655,336.195038 349.665344,323.005035
			C345.159607,300.988342 339.905457,279.350586 327.201111,260.239960
			C324.499176,256.175598 322.659058,254.043091 317.081757,255.710678
			C304.393463,259.504456 291.978394,257.271881 280.658813,250.615784
			C258.284515,237.459320 251.122437,209.880173 262.283051,186.792236
			C263.627502,184.010956 264.047119,181.985352 261.096649,180.627792
			C247.163986,174.217026 234.750916,164.520432 218.654297,162.787720
			C207.826126,161.622147 197.205734,158.594772 186.451752,156.621780
			C183.865311,156.147247 181.044556,155.417664 179.429169,159.237717
			C172.661118,175.242737 169.799622,192.138123 169.728485,209.227936
			C169.676498,221.719925 171.642456,234.260208 175.262283,246.473404
			C181.630112,267.958160 192.667191,286.571899 207.962418,302.813629
			C210.388214,305.389557 212.285126,305.785492 214.945663,303.016541
			C221.640182,296.049164 228.498322,289.234772 235.424179,282.496094
			C238.081253,279.910858 237.725174,278.032288 235.349258,275.384491
			C209.502258,246.579880 203.122910,213.580551 214.360397,176.830734
			C215.773041,172.210999 218.496506,169.361801 224.175812,169.075851
		M192.627228,319.192810
			C193.860809,318.419830 195.489319,318.123169 195.963043,316.467102
			C195.949905,314.921234 194.873138,314.046204 193.929688,313.131317
			C187.680389,307.071503 182.635483,299.995758 178.001770,292.749786
			C160.381958,265.196777 151.708252,235.237762 153.432465,202.236893
			C154.185104,187.831223 156.412460,173.900940 160.861176,160.266678
			C164.299118,149.730164 164.368851,149.730850 154.449158,144.763168
			C146.459702,140.762131 138.443649,136.814163 130.849701,133.046234
			C129.000977,133.961853 128.737350,135.131439 128.311462,136.203217
			C118.158165,161.754974 112.620941,188.014221 114.162590,215.763351
			C114.949318,229.924377 116.618538,243.823456 120.208893,257.478210
			C127.499901,285.207245 140.447647,309.994293 158.959229,331.962921
			C161.861603,335.407318 163.932571,335.285645 167.218811,333.403107
			C175.435287,328.696320 183.736084,324.136780 192.627228,319.192810
		M327.922852,399.338867
			C343.504761,396.842499 358.865204,393.518921 373.650024,387.802063
			C376.483856,386.706238 377.559845,385.674286 375.938324,382.803711
			C370.797577,373.703186 365.684662,364.586060 360.671661,355.414795
			C359.305420,352.915222 357.771210,352.377075 355.006287,353.272186
			C343.468109,357.007538 331.702148,359.412598 319.553009,360.619171
			C298.197388,362.740021 277.514587,360.303925 257.257751,353.624908
			C243.634796,349.133148 230.757812,343.062012 219.072052,334.623444
			C216.865952,333.030365 214.541626,331.308655 212.513916,334.981079
			C207.537155,343.994507 202.535889,352.994476 197.513474,361.982544
			C196.038773,364.621704 196.441315,366.370239 199.147491,368.166840
			C208.304535,374.246033 217.845856,379.516724 227.892960,384.015930
			C251.232269,394.467590 275.679291,399.674286 301.154175,400.671051
			C309.835663,401.010742 318.390472,399.467072 327.922852,399.338867
		M302.306122,200.707382
			C296.302216,197.865601 290.237061,195.144211 284.319733,192.132355
			C281.257294,190.573654 279.560730,191.218689 277.908600,194.184311
			C271.809143,205.132980 272.973206,219.097794 281.487183,229.120193
			C288.743774,237.662399 298.263458,241.434937 309.408966,240.350952
			C314.254547,239.879700 314.818939,238.334381 312.699402,234.316574
			C309.602570,228.446259 306.326477,222.660629 303.482880,216.669891
			C301.416077,212.315659 303.446564,206.808578 307.256317,205.053329
			C311.191162,203.240448 316.354340,205.192261 318.728180,209.464172
			C321.228699,213.964050 323.630127,218.519058 326.138916,223.014221
			C327.012573,224.579514 327.762878,226.709915 329.769684,226.772095
			C332.179169,226.846741 332.786438,224.448807 333.592255,222.680237
			C341.273315,205.822342 334.178864,186.808334 317.118134,180.009583
			C311.372345,177.719879 304.988220,175.422943 298.043976,179.261932
			C301.895050,181.277176 305.358856,182.864548 308.589020,184.834976
			C312.984161,187.516083 314.941498,192.341125 312.995392,196.363281
			C311.065033,200.352814 307.582306,202.069504 302.306122,200.707382
		M78.349495,463.849884
			C72.464005,469.732544 66.574287,475.610931 60.694130,481.498901
			C54.083977,488.117828 54.169514,489.076599 61.380703,494.981812
			C62.922588,496.244476 64.554146,496.638763 66.443230,496.628510
			C71.935333,496.598724 77.431343,496.499756 82.918549,496.666748
			C85.923836,496.758209 87.514839,495.475037 88.418930,492.740784
			C93.942764,476.034698 99.518265,459.345673 105.083466,442.653290
			C105.512466,441.366516 106.028374,440.090881 103.508270,438.670471
			C95.418686,446.766174 87.133652,455.057495 78.349495,463.849884
		M417.380157,436.801270
			C416.872864,451.266541 418.798492,465.663483 418.489532,480.140472
			C418.312073,488.456970 419.086395,488.909088 427.153198,491.433228
			C430.000916,492.324310 433.147583,492.587616 435.721283,493.957581
			C440.815063,496.668915 444.976624,494.735107 449.264496,492.283203
			C451.864624,490.796326 452.516846,489.348450 450.836182,486.329315
			C441.719482,469.952301 432.992859,453.358063 423.859344,436.990662
			C422.303558,434.202667 421.375488,430.616150 417.379852,428.508881
			C417.379852,431.412689 417.379852,433.658081 417.380157,436.801270
		M472.904510,479.136292
			C477.387024,477.735565 479.255859,474.266724 480.349365,470.032379
			C481.507233,465.548950 482.799103,461.093964 484.218872,456.686615
			C485.064026,454.063049 484.462067,452.536011 482.085327,450.911346
			C467.588562,441.001984 453.229248,430.891632 438.820221,420.853882
			C437.774475,420.125366 436.809387,418.942139 435.321320,420.053345
			C434.560699,421.517059 435.525970,422.569000 436.145905,423.709442
			C439.392059,429.680939 442.596039,435.675629 445.876526,441.628174
			C452.517914,453.679260 459.296173,465.656342 465.799988,477.780884
			C467.566528,481.074097 469.384491,481.849548 472.904510,479.136292
		M33.376297,450.707123
			C33.376087,453.871643 33.678844,457.072266 33.307465,460.192596
			C32.689220,465.387146 34.890060,468.968292 38.524384,472.396667
			C41.186646,474.908020 42.860607,475.069061 45.467560,472.431488
			C59.984226,457.744202 74.641602,443.196045 89.226494,428.576019
			C90.092422,427.707947 91.453217,426.925232 90.519897,424.970459
			C89.330750,425.197968 88.029373,425.300446 86.826210,425.699280
			C70.912598,430.974213 55.056023,436.426666 39.081543,441.508972
			C34.648983,442.919189 32.635563,445.194580 33.376297,450.707123
		M56.499817,94.621651
			C66.147369,94.621651 75.794922,94.621651 85.689651,94.621651
			C85.023743,91.273567 83.051674,91.161545 81.678650,90.469528
			C64.617050,81.870285 47.512127,73.357071 30.432852,64.792801
			C23.193899,61.162891 19.687319,62.991669 18.488234,71.094940
			C18.259928,72.637794 18.745110,74.036888 19.223013,75.466225
			C20.799646,80.181694 22.538113,84.858307 23.801615,89.658501
			C24.851034,93.645370 27.150526,94.795799 31.057852,94.687256
			C39.199493,94.461098 47.351849,94.620468 56.499817,94.621651
		M402.626434,395.913422
			C404.153381,398.676941 405.752991,401.403137 407.193542,404.210968
			C411.387939,412.386261 411.833618,412.538605 419.827820,407.953552
			C420.116486,407.787964 420.412842,407.634613 420.711731,407.488098
			C423.710999,406.017792 424.185577,404.056183 422.515533,401.064453
			C412.078827,382.368042 401.793701,363.587067 391.386414,344.874146
			C386.395477,335.900116 386.378479,336.033478 377.486786,341.189026
			C374.617767,342.852509 374.465240,344.265625 376.047150,347.113068
			C384.922394,363.088837 393.564545,379.194061 402.626434,395.913422
		M76.304466,68.072891
			C82.256760,70.826935 87.458885,75.273277 94.518852,76.892609
			C94.311264,75.558578 94.393829,74.971062 94.142006,74.631592
			C82.981255,59.587151 71.769447,44.580524 60.634338,29.517189
			C59.381592,27.822500 58.022732,27.763859 56.296497,28.342361
			C50.178375,30.392693 43.972775,32.213303 37.958649,34.531677
			C33.937126,36.081924 33.068680,40.379993 32.269028,43.899673
			C31.592791,46.876148 35.251312,47.479183 37.320534,48.531471
			C50.055107,55.007526 62.867931,61.329704 76.304466,68.072891
		M115.420601,89.292953
			C109.042137,86.109711 109.042671,86.109978 105.916306,92.395271
			C105.619614,92.991753 105.359505,93.613617 105.000000,94.170494
			C102.597633,97.891785 103.794090,99.873260 107.681213,101.807877
			C126.900040,111.373062 145.963928,121.249229 165.100266,130.980698
			C172.629074,134.809341 172.442459,134.655731 176.522812,127.095192
			C178.832397,122.815758 178.483765,120.592697 173.763840,118.309456
			C154.432556,108.958031 135.297760,99.200455 115.420601,89.292953
		M160.142105,360.393005
			C144.326447,376.084351 128.450302,391.715363 112.720673,407.492493
			C104.884506,415.352325 104.649750,413.050537 112.961235,421.821381
			C115.245628,424.232086 116.919594,423.948273 119.140388,421.716583
			C135.682510,405.093719 152.304245,388.550049 168.912766,371.993347
			C169.999619,370.909882 171.451355,369.750580 169.932449,368.267944
			C167.019943,365.424896 164.908478,361.619476 160.142105,360.393005
		M365.427216,315.655365
			C366.611633,318.859924 366.071899,322.567169 368.282196,325.656311
			C371.066742,325.398895 373.217102,324.177032 375.216125,321.836182
			C372.204559,318.167938 369.147858,314.898346 364.968933,312.069611
			C365.174072,313.452026 365.293304,314.255463 365.427216,315.655365
		M185.557236,343.016174
			C182.333755,344.829102 178.735687,346.069458 175.856094,349.043091
			C177.900467,351.109741 179.273010,355.342438 182.189117,353.130310
			C185.097183,350.924286 187.146759,346.987854 187.730347,342.939545
			C187.833939,342.220825 186.670578,342.704407 185.557236,343.016174
		M201.410416,138.906769
			C198.609589,137.341492 196.994614,134.062286 193.317459,133.179443
			C192.389038,135.709488 188.085373,138.130096 192.732407,140.359695
			C196.134933,141.992188 200.314804,142.004532 205.143417,142.929688
			C203.578201,141.231140 202.718796,140.298538 201.410416,138.906769
		z"/>
	<path
		fill="#FFF4CF"
		opacity="1.000000"
		stroke="none"
		d="
		M381.221008,232.334137
			C388.740997,206.655869 384.668457,183.032623 369.271606,161.948349
			C356.196594,144.043594 338.183197,133.463577 315.924530,130.289261
			C294.116364,127.179161 274.883026,133.151215 257.336212,145.788406
			C252.171661,149.507919 246.815643,149.133392 243.735123,144.748825
			C241.142548,141.058716 242.565369,135.495117 246.891846,132.122299
			C266.761841,116.632095 289.629242,110.742996 314.271240,112.865829
			C337.705017,114.884583 358.250305,124.534920 374.621307,141.602173
			C391.942749,159.660263 401.028015,181.268951 401.516632,206.661270
			C401.949585,229.159485 395.995209,249.268311 382.412018,267.133698
			C380.003967,270.300934 377.466156,273.401367 374.708710,276.263306
			C370.861237,280.256561 365.331940,280.556152 361.755554,277.278473
			C358.665802,274.446869 358.703552,268.441895 362.197510,264.623322
			C370.737579,255.289764 377.256287,244.808548 381.221008,232.334137
		z"/>
</svg>
