<svg id="svg" version="1.1" xmlns="http://www.w3.org/2000/svg" xmlns:xlink="http://www.w3.org/1999/xlink" width="400" height="400" viewBox="0, 0, 400,400"><g id="svgg"><path id="path0" d="M84.375 38.075 C 26.447 68.752,9.659 134.515,42.140 203.516 C 51.147 222.649,93.476 293.654,103.078 305.738 C 146.808 360.767,214.331 375.481,263.257 340.642 C 275.482 331.937,271.515 309.790,252.339 279.688 C 229.525 243.874,213.042 237.026,186.328 252.265 C 173.296 259.699,173.699 259.527,169.381 259.494 C 164.388 259.455,156.953 255.987,152.734 251.728 C 148.601 247.556,110.222 181.534,108.827 176.197 C 105.509 163.502,108.977 156.647,122.656 148.860 L 130.078 144.635 131.054 146.488 C 132.363 148.972,215.737 214.373,220.703 216.811 C 228.772 220.772,236.555 220.881,245.217 217.154 C 247.590 216.133,270.902 198.350,305.979 170.805 L 362.891 126.111 363.090 198.772 C 363.288 270.907,363.278 271.444,361.702 273.021 C 360.155 274.569,359.034 274.619,317.717 275.000 C 279.144 275.355,275.133 275.513,273.245 276.750 C 269.040 279.508,269.020 287.318,273.210 290.614 C 275.251 292.219,275.741 292.234,319.863 292.016 L 364.453 291.797 368.456 289.685 C 373.797 286.868,378.631 281.264,380.111 276.175 C 381.129 272.673,381.257 261.315,381.072 190.950 L 380.859 109.766 378.552 105.599 C 375.809 100.649,372.993 98.117,367.188 95.383 L 362.891 93.359 252.734 93.141 L 142.578 92.923 135.938 79.864 C 117.409 43.430,100.358 29.610,84.375 38.075 M97.785 55.700 C 110.497 65.395,129.152 100.770,129.253 115.370 C 129.311 123.833,128.638 124.654,115.171 132.537 C 97.657 142.789,92.529 149.254,90.663 163.434 C 88.692 178.402,89.554 180.582,114.506 223.790 C 137.224 263.129,139.666 266.406,150.471 272.061 C 165.443 279.895,174.960 279.147,193.477 268.677 C 206.710 261.195,208.551 260.750,214.411 263.617 C 227.646 270.092,253.282 310.977,252.200 323.884 C 251.709 329.741,232.577 338.331,213.903 341.077 C 174.930 346.809,132.503 322.126,105.211 277.845 C 93.801 259.331,60.046 199.956,56.815 192.714 C 31.839 136.742,43.457 82.856,85.950 57.585 C 94.753 52.350,93.628 52.529,97.785 55.700 M353.060 111.215 C 341.342 121.186,238.327 200.903,236.289 201.575 C 231.072 203.297,229.691 202.377,186.323 168.307 C 163.553 150.418,144.282 135.326,143.499 134.771 C 142.139 133.804,142.163 133.590,144.044 129.879 C 146.290 125.446,148.053 116.633,147.373 113.235 L 146.914 110.938 250.150 110.938 C 306.929 110.938,353.239 111.062,353.060 111.215 " stroke="none" fill="#EEEEEE" fill-rule="evenodd"></path></g></svg>
