<svg id="svg" version="1.1" xmlns="http://www.w3.org/2000/svg" xmlns:xlink="http://www.w3.org/1999/xlink" width="400" height="400" viewBox="0, 0, 400,400"><g id="svgg"><path id="path0" d="M14.364 1.263 C 0.728 6.099,-6.261 31.250,6.031 31.250 C 9.900 31.250,12.500 28.361,12.501 24.059 C 12.503 19.627,14.598 15.657,17.969 13.698 C 22.229 11.222,167.596 11.197,171.787 13.672 C 177.338 16.950,177.344 16.989,177.343 51.941 C 177.341 95.490,180.502 91.642,144.281 92.188 C 112.672 92.664,116.643 90.791,105.131 110.658 C 100.435 118.761,96.182 126.009,95.680 126.764 C 94.894 127.946,93.470 125.891,85.475 112.034 C 73.097 90.582,77.277 92.666,45.666 92.188 C 10.790 91.660,12.513 92.918,12.492 67.969 C 12.475 47.534,11.540 44.979,4.631 46.497 C 0.245 47.460,0.000 48.599,0.000 68.003 C 0.000 88.421,0.475 90.721,5.949 96.809 C 12.516 104.114,13.084 104.239,41.785 104.688 L 66.774 105.078 76.160 121.277 C 87.266 140.442,88.203 141.536,93.895 141.993 C 100.746 142.543,102.015 141.217,113.281 121.728 L 123.047 104.835 148.047 104.566 C 176.800 104.257,177.297 104.148,183.985 96.709 C 189.764 90.282,189.844 89.669,189.844 51.841 C 189.844 13.705,189.754 13.117,182.868 6.231 C 176.237 -0.400,181.837 -0.008,94.587 0.062 C 29.192 0.114,17.093 0.295,14.364 1.263 M32.606 33.789 C 29.253 36.336,29.422 41.600,32.937 44.062 C 36.106 46.281,154.472 45.931,157.317 43.693 C 159.943 41.627,160.202 36.764,157.813 34.375 C 155.863 32.425,35.146 31.860,32.606 33.789 M32.937 62.969 C 29.369 65.469,29.315 71.565,32.843 73.454 C 36.016 75.152,97.462 74.413,99.219 72.656 C 101.608 70.267,101.349 65.404,98.723 63.338 C 95.894 61.113,36.067 60.777,32.937 62.969 M195.397 110.220 C 178.339 113.570,168.592 126.334,168.100 145.964 C 167.784 158.567,168.659 160.938,173.625 160.937 C 179.032 160.937,180.469 157.986,180.469 146.883 C 180.469 135.249,184.558 128.173,193.750 123.900 C 197.251 122.273,197.638 122.266,283.984 122.266 L 370.703 122.266 375.175 124.462 C 380.476 127.065,384.639 131.634,386.320 136.694 C 388.385 142.912,387.717 232.760,385.573 237.083 C 382.021 244.247,375.867 248.216,366.432 249.428 C 352.232 251.251,351.380 253.289,355.505 275.587 C 356.814 282.664,357.780 288.768,357.652 289.153 C 357.524 289.537,348.461 281.360,337.511 270.981 C 313.594 248.311,316.984 250.000,295.394 250.000 L 278.238 250.000 276.619 252.058 C 270.703 259.580,276.037 262.500,295.691 262.500 L 310.030 262.500 334.278 285.505 C 362.188 311.983,363.156 312.556,369.689 306.443 C 372.993 303.350,372.981 301.411,369.538 282.293 C 367.770 272.481,366.255 263.932,366.170 263.295 C 366.054 262.428,367.238 261.999,370.878 261.587 C 381.528 260.382,391.976 252.721,397.009 242.427 L 399.609 237.109 399.609 185.921 L 399.609 134.733 396.925 129.280 C 392.041 119.357,382.703 112.210,371.960 110.172 C 366.762 109.187,200.431 109.231,195.397 110.220 M201.093 146.422 C 197.174 148.138,196.328 153.168,199.464 156.114 L 201.273 157.813 284.230 157.813 C 366.146 157.813,367.207 157.793,368.750 156.250 C 370.754 154.246,370.787 149.978,368.819 147.547 L 367.326 145.703 285.421 145.533 C 217.883 145.392,203.091 145.548,201.093 146.422 M28.729 176.987 C 19.251 179.303,11.088 185.239,5.438 193.923 C -0.193 202.577,-0.111 201.485,0.154 263.672 L 0.391 319.141 3.312 325.260 C 9.497 338.211,19.112 344.821,35.352 347.283 C 38.929 347.825,38.982 345.851,34.766 368.926 C 32.832 379.508,31.250 389.633,31.250 391.427 C 31.250 397.705,38.501 401.965,44.964 399.485 C 45.702 399.202,58.467 387.425,73.331 373.313 L 100.356 347.656 161.311 347.641 C 197.878 347.631,224.436 347.312,227.690 346.841 C 243.091 344.615,256.552 331.723,259.376 316.495 C 260.764 309.009,260.397 210.639,258.960 205.047 C 255.646 192.154,247.579 183.149,234.766 178.041 L 230.078 176.172 131.641 176.033 C 49.576 175.917,32.459 176.076,28.729 176.987 M279.688 184.375 C 277.287 186.776,277.557 191.628,280.208 193.713 C 282.273 195.337,282.655 195.349,324.809 195.137 L 367.326 194.922 368.819 193.078 C 370.892 190.517,370.749 186.620,368.504 184.511 L 366.696 182.813 323.973 182.813 C 282.292 182.813,281.212 182.851,279.688 184.375 M232.067 190.704 C 238.250 193.604,241.784 197.035,244.711 202.980 L 247.266 208.170 247.266 261.702 L 247.266 315.234 245.217 319.531 C 241.711 326.884,235.621 331.915,227.766 333.950 C 223.756 334.989,214.399 335.156,160.352 335.156 C 99.964 335.156,97.485 335.213,94.695 336.658 C 93.101 337.484,81.428 348.004,68.756 360.036 C 56.083 372.068,45.615 381.813,45.492 381.690 C 45.370 381.568,46.685 373.645,48.416 364.085 C 53.130 338.047,52.413 336.044,37.959 334.874 C 27.510 334.028,19.835 329.332,15.186 320.940 L 12.891 316.797 12.675 262.615 L 12.459 208.434 14.473 204.022 C 17.784 196.771,24.036 191.287,31.211 189.339 C 33.956 188.594,56.745 188.408,131.250 188.523 L 227.734 188.672 232.067 190.704 M45.808 221.150 C 43.059 223.313,42.935 227.868,45.558 230.333 L 47.366 232.031 129.969 232.031 L 212.571 232.031 214.489 230.114 C 217.026 227.577,217.026 223.986,214.489 221.449 L 212.571 219.531 130.219 219.531 C 48.089 219.531,47.861 219.536,45.808 221.150 M47.656 256.804 C 43.576 258.304,42.260 264.135,45.313 267.188 C 46.855 268.730,47.917 268.750,130.021 268.750 L 213.168 268.750 214.787 266.692 C 217.546 263.184,216.318 258.479,212.276 257.070 C 209.820 256.214,49.964 255.956,47.656 256.804 M45.313 295.313 C 43.153 297.472,43.197 302.383,45.395 304.371 C 46.970 305.797,48.850 305.859,89.995 305.859 L 132.951 305.859 134.444 304.015 C 136.517 301.455,136.374 297.557,134.129 295.449 L 132.321 293.750 89.598 293.750 C 47.917 293.750,46.837 293.788,45.313 295.313 " stroke="none" fill="#FFF4CF" fill-rule="evenodd"></path></g></svg>
