<svg id="svg" xmlns="http://www.w3.org/2000/svg" xmlns:xlink="http://www.w3.org/1999/xlink" width="400" height="400" viewBox="0, 0, 400,400"><g id="svgg"><path id="path0" d="M189.268 6.472 C 150.123 43.480,101.016 64.155,45.402 67.043 C 33.538 67.659,33.357 67.696,31.499 69.857 L 29.616 72.046 29.904 147.546 L 30.193 223.047 32.236 233.984 C 36.879 258.843,45.372 281.823,57.742 303.004 C 62.964 311.946,64.016 312.891,68.750 312.891 C 77.765 312.891,79.040 306.240,72.218 294.808 C 59.510 273.511,51.037 249.062,47.203 222.620 C 45.074 207.936,44.536 83.595,46.602 83.591 C 94.533 83.503,154.384 59.612,193.945 24.777 L 200.000 19.445 206.055 24.777 C 245.177 59.226,292.839 78.816,348.319 83.249 L 354.842 83.770 354.468 148.721 C 354.065 218.877,353.972 220.597,349.530 240.482 C 333.719 311.253,273.708 370.139,204.378 382.913 C 190.637 385.445,153.605 371.390,127.650 353.792 C 116.213 346.037,108.594 346.953,108.594 356.085 C 108.594 366.736,152.860 390.174,187.760 398.001 C 198.727 400.461,201.362 400.474,211.719 398.125 C 296.339 378.925,360.133 307.278,369.490 220.929 C 370.004 216.192,370.313 186.797,370.313 142.652 L 370.313 71.962 368.465 69.815 C 366.652 67.706,366.401 67.656,354.598 67.043 C 298.812 64.146,250.179 43.666,210.732 6.458 C 200.979 -2.742,199.013 -2.741,189.268 6.472 M197.216 49.970 C 196.330 50.329,192.388 52.941,188.457 55.775 C 155.671 79.406,117.964 94.969,77.509 101.566 C 73.529 102.216,71.119 103.081,69.501 104.442 L 67.188 106.389 67.188 159.270 C 67.188 191.386,67.509 214.750,68.006 218.770 C 76.445 287.041,125.317 343.169,191.139 360.183 L 199.857 362.436 207.546 360.573 C 261.603 347.474,306.632 305.520,324.543 251.563 C 332.322 228.128,332.813 222.651,332.813 159.270 L 332.813 106.389 330.409 104.366 C 329.087 103.254,327.742 102.344,327.420 102.344 C 325.128 102.344,307.059 98.659,298.047 96.354 C 267.607 88.567,237.346 74.373,211.555 55.784 C 202.440 49.214,200.764 48.534,197.216 49.970 M208.594 73.893 C 239.763 94.920,273.309 108.816,310.441 116.082 L 317.366 117.437 316.973 164.773 C 316.550 215.704,316.307 219.203,311.998 236.328 C 299.601 285.602,262.958 324.951,214.038 341.520 C 201.358 345.815,198.712 345.810,185.938 341.474 C 136.912 324.834,100.409 285.642,88.002 236.328 C 83.693 219.201,83.450 215.708,83.027 164.732 L 82.633 117.355 86.043 116.796 C 121.189 111.031,163.085 93.794,192.969 72.803 C 196.621 70.238,199.785 68.189,200.000 68.249 C 200.215 68.310,204.082 70.850,208.594 73.893 M212.337 114.942 C 198.355 122.312,188.894 132.943,179.164 152.216 C 179.091 152.361,177.176 151.012,174.908 149.220 C 155.619 133.972,141.008 136.853,146.140 154.893 C 149.953 168.298,148.848 181.612,142.643 197.035 C 136.525 212.240,134.948 225.980,137.856 238.739 C 151.205 297.307,230.921 306.669,257.031 252.734 C 267.412 231.292,265.740 214.278,250.765 188.986 C 232.298 157.799,226.474 139.904,229.493 123.637 C 231.650 112.022,224.628 108.463,212.337 114.942 M213.341 144.472 C 215.448 157.449,221.173 170.848,234.725 194.519 C 247.648 217.090,249.392 224.548,245.023 238.561 C 233.162 276.604,183.036 284.063,160.969 251.068 C 151.148 236.385,150.353 222.407,158.220 202.734 C 163.292 190.053,164.323 184.983,164.393 172.382 L 164.453 161.561 167.807 165.351 C 169.652 167.435,172.641 172.094,174.448 175.704 C 180.809 188.409,192.152 186.987,191.577 173.556 C 191.121 162.890,199.298 146.128,209.220 137.391 L 212.109 134.846 212.318 137.150 C 212.432 138.417,212.892 141.712,213.341 144.472 M84.762 326.886 C 82.541 329.107,81.663 332.021,82.369 334.833 C 84.619 343.798,98.438 342.061,98.438 332.813 C 98.438 325.943,89.555 322.093,84.762 326.886 " stroke="none" fill="#FFF4CF" fill-rule="evenodd"></path></g></svg>
