<svg id="svg" xmlns="http://www.w3.org/2000/svg" xmlns:xlink="http://www.w3.org/1999/xlink" width="400" height="400" viewBox="0, 0, 400,400"><g id="svgg"><path id="path0" d="M164.781 0.742 C 102.815 12.047,72.010 80.970,105.155 134.149 C 112.651 146.176,129.655 161.697,135.352 161.711 C 142.889 161.731,143.809 153.803,136.820 149.047 C 76.539 108.028,106.261 12.440,179.297 12.440 C 252.316 12.440,282.041 108.037,221.774 149.047 C 216.768 152.453,215.544 156.950,218.750 160.156 C 222.950 164.356,230.469 160.287,243.168 146.942 C 288.366 99.447,265.962 20.434,202.260 2.671 C 194.303 0.452,172.516 -0.669,164.781 0.742 M165.234 32.741 C 144.973 38.268,129.259 54.125,124.515 73.828 C 119.935 92.851,127.334 119.639,136.606 117.603 C 141.977 116.423,142.599 112.369,138.782 103.428 C 126.957 75.731,148.669 43.750,179.297 43.750 C 210.465 43.750,231.493 75.441,219.463 104.282 C 215.941 112.723,216.632 116.245,222.076 117.603 C 231.185 119.877,238.629 92.727,234.079 73.828 C 226.937 44.163,194.445 24.771,165.234 32.741 M170.075 64.040 C 164.178 66.344,159.796 70.437,156.875 76.371 L 154.297 81.606 154.065 164.827 C 153.795 261.428,153.442 256.293,160.352 256.225 C 166.536 256.165,165.967 264.373,166.406 168.854 L 166.797 83.869 168.876 80.729 C 173.926 73.099,184.668 73.099,189.718 80.729 L 191.797 83.869 192.013 152.832 L 192.228 221.794 194.266 223.397 C 200.746 228.494,204.688 223.659,204.688 210.612 C 204.688 199.087,208.324 194.141,216.797 194.141 C 226.460 194.141,229.637 199.939,229.669 217.637 C 229.689 228.927,230.657 231.250,235.338 231.250 C 240.856 231.250,242.188 228.593,242.188 217.578 C 242.188 204.137,248.077 197.772,257.815 200.690 C 264.923 202.819,267.177 208.327,267.183 223.576 C 267.188 235.423,268.124 237.500,273.456 237.500 C 278.331 237.500,279.256 235.568,279.688 224.484 C 280.104 213.796,280.554 212.319,284.380 209.100 C 290.842 203.662,300.308 206.727,303.590 215.319 C 304.802 218.495,304.886 221.206,304.423 242.431 C 303.467 286.276,301.288 305.531,290.193 368.163 C 284.713 399.095,284.767 400.000,292.066 400.000 C 297.334 400.000,297.366 399.904,303.262 366.599 C 316.060 294.302,321.372 223.236,315.025 209.203 C 308.941 195.751,293.328 190.056,280.570 196.636 L 275.732 199.131 272.468 195.589 C 264.892 187.370,253.241 185.288,243.062 190.333 L 238.135 192.775 234.919 189.286 C 228.218 182.017,214.708 178.950,207.268 183.010 L 204.770 184.372 204.533 132.989 L 204.297 81.605 201.719 76.370 C 195.987 64.729,182.129 59.330,170.075 64.040 M96.353 188.902 C 87.669 191.998,83.203 198.023,83.203 206.641 C 83.203 211.282,158.692 394.428,162.338 398.633 C 163.977 400.523,169.632 400.485,171.363 398.571 C 174.138 395.505,173.387 393.515,133.916 299.363 C 91.872 199.074,93.872 204.595,98.520 201.692 C 107.269 196.228,117.620 201.431,126.144 215.579 C 131.367 224.247,132.144 225.000,135.865 225.000 C 148.193 225.000,134.787 197.327,118.920 190.022 C 112.944 187.270,102.396 186.747,96.353 188.902 " stroke="none" fill="#FFF4CF" fill-rule="evenodd"></path></g></svg>
