<svg id="svg" xmlns="http://www.w3.org/2000/svg" xmlns:xlink="http://www.w3.org/1999/xlink" width="400" height="400" viewBox="0, 0, 400,400"><g id="svgg"><path id="path0" d="M196.295 21.897 C 193.628 22.969,5.446 160.747,2.539 163.755 C -3.921 170.442,1.148 181.495,10.681 181.506 C 14.814 181.511,4.473 188.792,107.422 113.394 C 156.406 77.519,197.363 47.656,198.438 47.032 C 200.352 45.921,202.232 47.246,291.039 112.271 C 395.912 189.061,385.196 181.511,389.319 181.506 C 398.852 181.495,403.919 170.445,397.461 163.752 C 394.251 160.425,206.307 22.936,203.521 21.877 C 201.050 20.937,198.666 20.944,196.295 21.897 M49.267 182.678 C 43.340 185.856,43.750 178.626,43.753 280.066 C 43.756 381.160,43.342 373.430,48.952 377.106 C 52.237 379.259,160.994 379.292,164.276 377.141 C 169.314 373.840,169.101 376.368,169.531 314.844 L 169.922 258.984 172.218 254.297 C 183.640 230.975,216.346 230.975,227.780 254.297 L 230.078 258.984 230.469 314.844 C 230.829 366.379,230.966 370.899,232.243 373.235 C 235.305 378.839,231.560 378.516,293.359 378.516 C 355.205 378.516,351.273 378.856,354.722 373.200 C 357.028 369.418,357.124 191.058,354.822 186.767 C 351.145 179.909,341.219 179.599,336.384 186.190 C 334.774 188.384,334.765 188.828,334.553 272.713 L 334.341 357.031 293.342 357.031 L 252.344 357.031 252.344 309.733 C 252.344 248.426,251.733 245.305,236.808 230.380 C 207.582 201.154,157.813 215.666,148.899 256.014 C 147.838 260.814,147.656 268.611,147.656 309.334 L 147.656 357.031 106.658 357.031 L 65.659 357.031 65.447 272.713 C 65.235 188.828,65.226 188.384,63.616 186.190 C 60.216 181.555,54.136 180.066,49.267 182.678 " stroke="none" fill="#EEEEEE" fill-rule="evenodd"></path></g></svg>
