<svg id="svg" xmlns="http://www.w3.org/2000/svg" xmlns:xlink="http://www.w3.org/1999/xlink" width="400" height="400" viewBox="0, 0, 400,400"><g id="svgg"><path id="path0" d="M203.125 29.688 L 203.125 34.375 198.438 34.375 L 193.750 34.375 193.750 37.500 L 193.750 40.625 198.438 40.625 L 203.125 40.625 203.125 45.313 L 203.125 50.000 206.250 50.000 L 209.375 50.000 209.375 45.313 L 209.375 40.625 214.063 40.625 L 218.750 40.625 218.750 37.500 L 218.750 34.375 214.063 34.375 L 209.375 34.375 209.375 29.688 L 209.375 25.000 206.250 25.000 L 203.125 25.000 203.125 29.688 M209.375 37.500 L 209.375 40.625 206.250 40.625 L 203.125 40.625 203.125 37.500 L 203.125 34.375 206.250 34.375 L 209.375 34.375 209.375 37.500 M115.625 54.688 L 115.625 59.375 110.938 59.375 L 106.250 59.375 106.250 62.500 L 106.250 65.625 110.938 65.625 L 115.625 65.625 115.625 70.313 L 115.625 75.000 118.750 75.000 L 121.875 75.000 121.875 70.313 L 121.875 65.625 126.563 65.625 L 131.250 65.625 131.250 62.500 L 131.250 59.375 126.563 59.375 L 121.875 59.375 121.875 54.688 L 121.875 50.000 118.750 50.000 L 115.625 50.000 115.625 54.688 M290.625 54.688 L 290.625 59.375 285.938 59.375 L 281.250 59.375 281.250 62.500 L 281.250 65.625 285.938 65.625 L 290.625 65.625 290.625 70.313 L 290.625 75.000 293.750 75.000 L 296.875 75.000 296.875 70.313 L 296.875 65.625 301.563 65.625 L 306.250 65.625 306.250 62.500 L 306.250 59.375 301.563 59.375 L 296.875 59.375 296.875 54.688 L 296.875 50.000 293.750 50.000 L 290.625 50.000 290.625 54.688 M121.875 62.500 L 121.875 65.625 118.750 65.625 L 115.625 65.625 115.625 62.500 L 115.625 59.375 118.750 59.375 L 121.875 59.375 121.875 62.500 M296.875 62.500 L 296.875 65.625 293.750 65.625 L 290.625 65.625 290.625 62.500 L 290.625 59.375 293.750 59.375 L 296.875 59.375 296.875 62.500 M189.063 75.488 C 160.403 80.806,141.657 90.110,123.570 107.996 C 100.848 130.465,90.581 155.456,90.216 189.179 L 90.024 206.874 73.137 236.109 C 63.849 252.188,56.250 265.671,56.251 266.071 C 56.251 266.470,65.428 269.242,76.643 272.230 C 93.715 276.778,97.130 277.923,97.622 279.261 C 97.945 280.140,101.689 293.953,105.941 309.956 L 113.672 339.052 141.211 339.057 L 168.750 339.063 168.750 357.031 C 168.750 370.232,168.993 375.000,169.664 375.000 C 170.167 375.000,198.137 367.793,231.821 358.984 C 265.504 350.176,293.217 342.969,293.406 342.969 C 293.595 342.969,293.750 324.709,293.750 302.392 L 293.750 261.816 298.962 254.150 C 322.359 219.740,325.411 174.365,306.796 137.706 C 290.991 106.582,262.687 84.801,227.734 76.864 C 222.401 75.653,193.681 74.631,189.063 75.488 M229.161 84.679 C 303.119 102.502,336.126 190.026,292.080 251.519 L 287.500 257.913 287.495 297.511 L 287.490 337.109 232.221 351.497 C 201.824 359.410,176.514 366.040,175.977 366.229 C 175.214 366.498,175.000 362.784,175.000 349.312 L 175.000 332.051 147.081 331.846 L 119.161 331.641 111.259 302.134 C 106.913 285.905,103.170 272.441,102.942 272.213 C 102.714 271.985,94.416 269.615,84.502 266.947 L 66.476 262.095 82.267 234.759 C 97.912 207.674,98.053 207.389,97.524 203.906 C 86.433 130.835,156.678 67.212,229.161 84.679 M65.625 104.688 L 65.625 109.375 60.938 109.375 L 56.250 109.375 56.250 112.500 L 56.250 115.625 60.938 115.625 L 65.625 115.625 65.625 120.313 L 65.625 125.000 68.750 125.000 L 71.875 125.000 71.875 120.313 L 71.875 115.625 76.563 115.625 L 81.250 115.625 81.250 112.500 L 81.250 109.375 76.563 109.375 L 71.875 109.375 71.875 104.688 L 71.875 100.000 68.750 100.000 L 65.625 100.000 65.625 104.688 M340.625 104.688 L 340.625 109.375 335.938 109.375 L 331.250 109.375 331.250 112.500 L 331.250 115.625 335.938 115.625 L 340.625 115.625 340.625 120.313 L 340.625 125.000 343.750 125.000 L 346.875 125.000 346.875 120.313 L 346.875 115.625 351.563 115.625 L 356.250 115.625 356.250 112.500 L 356.250 109.375 351.563 109.375 L 346.875 109.375 346.875 104.688 L 346.875 100.000 343.750 100.000 L 340.625 100.000 340.625 104.688 M71.875 112.500 L 71.875 115.625 68.750 115.625 L 65.625 115.625 65.625 112.500 L 65.625 109.375 68.750 109.375 L 71.875 109.375 71.875 112.500 M346.875 112.500 L 346.875 115.625 343.750 115.625 L 340.625 115.625 340.625 112.500 L 340.625 109.375 343.750 109.375 L 346.875 109.375 346.875 112.500 M151.563 133.550 C 144.043 141.634,137.891 148.794,137.891 149.461 C 137.891 150.876,204.672 231.127,205.910 231.201 C 206.582 231.241,270.448 155.770,274.071 150.655 C 274.997 149.348,273.717 147.736,260.833 133.979 L 246.571 118.750 205.902 118.801 L 165.234 118.853 151.563 133.550 M237.500 125.365 C 237.500 125.566,234.519 130.312,230.876 135.912 L 224.252 146.094 206.071 146.080 L 187.891 146.066 182.422 137.776 C 179.414 133.216,176.303 128.476,175.509 127.242 L 174.065 125.000 205.783 125.000 C 223.227 125.000,237.500 125.164,237.500 125.365 M172.206 135.355 C 174.751 139.328,177.340 143.369,177.960 144.336 L 179.086 146.094 164.484 146.094 L 149.881 146.094 158.287 137.109 C 162.910 132.168,166.892 128.127,167.136 128.129 C 167.379 128.131,169.661 131.383,172.206 135.355 M250.981 134.180 C 254.195 137.510,257.962 141.553,259.353 143.164 L 261.881 146.094 247.343 146.094 L 232.805 146.094 238.789 137.109 C 242.080 132.168,244.855 128.125,244.955 128.125 C 245.056 128.125,247.767 130.850,250.981 134.180 M182.815 153.320 C 182.816 153.428,186.301 166.523,190.559 182.421 C 197.472 208.232,198.094 211.086,196.371 209.083 C 190.187 201.893,150.992 154.914,150.499 154.102 C 150.033 153.333,153.404 153.125,166.360 153.125 C 175.409 153.125,182.814 153.213,182.815 153.320 M221.579 154.492 C 221.358 155.244,217.954 167.988,214.013 182.813 C 210.073 197.637,206.614 210.202,206.327 210.735 C 206.040 211.268,202.277 198.524,197.964 182.415 L 190.123 153.125 206.051 153.125 C 220.854 153.125,221.952 153.222,221.579 154.492 M258.458 158.131 C 238.042 182.695,214.414 210.723,214.247 210.576 C 214.133 210.476,217.473 197.513,221.669 181.768 L 229.297 153.141 245.958 153.133 L 262.618 153.125 258.458 158.131 " stroke="none" fill="#FFF4CF" fill-rule="evenodd"></path></g></svg>
