<svg id="svg" xmlns="http://www.w3.org/2000/svg" xmlns:xlink="http://www.w3.org/1999/xlink" width="400" height="400" viewBox="0, 0, 400,400"><g id="svgg"><path id="path0" d="M229.418 60.022 C 228.321 61.234,228.125 63.471,228.125 74.745 C 228.125 89.544,228.579 90.885,233.594 90.885 C 238.617 90.885,239.063 89.559,239.063 74.609 C 239.063 62.591,238.912 61.044,237.634 59.887 C 235.703 58.139,231.053 58.216,229.418 60.022 M208.524 75.681 C 202.600 80.477,212.864 93.255,220.172 90.182 C 225.031 88.140,224.412 83.918,218.424 78.255 C 213.760 73.845,211.513 73.260,208.524 75.681 M248.313 78.781 C 241.412 85.682,242.657 91.263,250.974 90.715 C 254.735 90.467,261.345 81.972,260.474 78.504 C 259.047 72.820,254.163 72.931,248.313 78.781 M329.080 78.560 C 326.560 80.325,326.701 85.053,329.366 88.221 L 331.389 90.625 329.366 93.029 C 323.447 100.063,330.845 107.737,337.668 101.640 L 340.204 99.374 342.786 101.640 C 349.675 107.689,357.030 100.073,351.102 93.029 L 349.080 90.625 351.102 88.221 C 356.910 81.320,349.842 73.839,342.950 79.593 L 340.257 81.841 337.528 79.593 C 334.483 77.083,331.679 76.740,329.080 78.560 M221.875 101.593 C 154.910 109.806,114.320 178.523,139.396 241.229 C 140.817 244.784,141.763 247.821,141.498 247.978 C 137.397 250.413,119.315 254.332,108.567 255.115 L 101.118 255.658 100.178 253.595 C 98.670 250.286,96.538 250.000,73.335 250.000 C 47.596 250.000,46.913 250.165,46.887 256.401 C 46.868 260.942,48.661 261.719,59.158 261.719 L 67.969 261.719 67.969 281.520 C 67.969 302.769,67.955 302.694,72.077 304.156 C 73.656 304.716,77.421 303.470,78.292 302.100 C 78.617 301.589,78.888 292.295,78.894 281.445 L 78.906 261.719 83.984 261.719 L 89.063 261.719 89.063 296.094 L 89.063 330.469 69.262 330.469 C 47.064 330.469,46.875 330.516,46.875 336.073 C 46.875 341.407,46.878 341.408,73.499 341.394 C 86.571 341.388,97.652 341.124,98.125 340.808 C 99.746 339.726,100.781 336.819,100.781 333.351 L 100.781 329.881 108.429 327.964 L 116.076 326.046 117.450 327.867 C 119.597 330.713,121.818 330.221,141.404 322.557 L 159.627 315.426 194.071 320.603 L 228.516 325.780 281.250 321.073 C 338.941 315.924,339.312 315.862,342.963 310.822 C 351.467 299.082,343.205 287.515,326.308 287.504 L 319.413 287.500 325.328 281.836 C 335.518 272.077,334.894 260.456,323.980 256.733 C 320.379 255.504,320.340 256.160,324.508 247.848 C 360.344 176.396,301.038 91.884,221.875 101.593 M109.871 104.744 C 105.208 108.412,108.671 116.405,114.441 115.293 C 119.414 114.335,121.185 108.614,117.614 105.043 C 115.270 102.699,112.602 102.596,109.871 104.744 M248.495 113.764 C 298.435 122.335,331.931 170.968,321.876 220.306 C 317.341 242.563,304.845 262.265,288.116 273.539 C 280.026 278.990,280.297 278.950,278.508 274.983 C 273.863 264.683,267.598 262.192,245.146 261.719 L 226.621 261.328 222.874 256.675 C 209.823 240.466,184.499 235.526,156.378 243.703 L 153.772 244.461 151.093 238.663 C 121.666 174.971,178.736 101.791,248.495 113.764 M209.766 120.262 C 187.153 126.978,167.473 143.274,157.131 163.845 C 153.327 171.412,154.533 175.781,160.426 175.781 C 163.393 175.781,164.654 174.619,167.206 169.531 C 176.244 151.515,194.101 136.806,213.672 131.260 C 221.709 128.982,224.153 124.863,219.957 120.668 C 217.721 118.431,216.140 118.368,209.766 120.262 M78.996 128.476 C 65.696 132.781,64.100 151.797,76.490 158.338 C 90.862 165.926,105.949 150.656,98.500 136.061 C 95.029 129.260,86.646 126.000,78.996 128.476 M87.500 140.625 C 89.687 142.812,89.478 145.654,86.987 147.613 C 84.733 149.386,82.339 149.168,80.664 147.037 C 77.026 142.410,83.351 136.476,87.500 140.625 M197.958 253.241 C 205.912 255.896,217.188 265.031,217.188 268.820 C 217.188 272.217,219.622 272.656,238.477 272.661 C 261.577 272.666,264.847 273.600,268.784 281.317 C 272.139 287.894,273.684 287.500,244.525 287.500 L 218.737 287.500 206.072 282.422 C 192.156 276.842,188.388 276.203,186.372 279.080 C 182.618 284.440,185.055 286.608,202.734 293.634 L 216.797 299.223 274.709 299.221 C 336.531 299.219,334.959 299.122,334.239 302.864 C 333.848 304.895,333.071 304.991,278.516 309.814 L 228.516 314.233 194.531 309.067 C 153.695 302.859,159.847 302.858,144.018 309.073 C 136.781 311.914,130.068 314.542,129.102 314.913 L 127.344 315.586 127.344 289.886 L 127.344 264.187 129.883 263.644 C 131.279 263.345,137.786 261.399,144.343 259.320 C 170.297 251.087,186.125 249.292,197.958 253.241 M115.441 290.380 L 115.234 314.354 109.766 315.735 C 106.758 316.494,103.506 317.314,102.539 317.557 L 100.781 317.999 100.781 292.645 L 100.781 267.291 102.930 266.966 C 104.111 266.787,107.456 266.588,110.363 266.523 L 115.648 266.406 115.441 290.380 M320.703 269.051 C 320.703 269.914,316.901 273.940,311.328 278.979 L 301.953 287.455 295.378 287.478 C 291.761 287.490,288.996 287.306,289.234 287.068 C 291.412 284.890,318.615 267.197,319.518 267.371 C 320.170 267.497,320.703 268.253,320.703 269.051 " stroke="none" fill="#FFF4CF" fill-rule="evenodd"></path></g></svg>
