<svg id="svg" xmlns="http://www.w3.org/2000/svg" xmlns:xlink="http://www.w3.org/1999/xlink" width="400" height="400" viewBox="0, 0, 400,400"><g id="svgg"><path id="path0" d="M61.719 1.621 C 50.410 6.726,48.438 12.046,48.438 37.443 C 48.438 59.658,48.644 60.469,54.297 60.469 C 60.478 60.469,60.938 58.929,60.938 38.199 C 60.938 15.852,62.235 12.500,70.883 12.500 C 81.204 12.500,81.250 12.734,81.250 65.209 L 81.250 109.375 71.094 109.375 L 60.938 109.375 60.938 94.637 C 60.938 77.406,60.394 75.781,54.631 75.781 C 48.739 75.781,48.438 76.676,48.438 94.141 L 48.438 109.375 38.256 109.375 C 25.229 109.375,20.757 111.093,17.504 117.344 C 15.895 120.436,15.895 170.189,17.504 173.281 C 20.757 179.532,25.229 181.250,38.256 181.250 L 48.438 181.250 48.438 281.611 C 48.438 379.899,48.470 382.059,49.993 386.129 C 56.628 403.863,82.269 405.002,91.261 387.961 L 93.359 383.984 93.566 282.690 L 93.773 181.396 104.894 181.113 C 117.411 180.794,119.485 180.130,123.202 175.257 L 125.391 172.387 125.391 145.313 L 125.391 118.238 123.202 115.368 C 119.486 110.496,117.409 109.831,104.906 109.513 L 93.797 109.229 93.578 62.623 L 93.359 16.016 91.261 12.039 C 85.711 1.522,72.366 -3.185,61.719 1.621 M190.205 1.848 C 188.003 2.873,184.845 5.299,183.037 7.353 C 176.937 14.283,177.344 6.333,177.344 118.499 L 177.344 218.750 166.992 218.767 C 145.989 218.802,145.313 219.926,145.313 254.763 C 145.313 289.559,145.971 290.611,167.773 290.621 L 177.344 290.625 177.344 336.189 C 177.344 387.375,177.208 386.025,183.037 392.647 C 191.899 402.716,208.101 402.716,216.963 392.647 C 222.792 386.025,222.656 387.375,222.656 336.189 L 222.656 290.625 232.227 290.621 C 245.869 290.614,250.974 288.627,253.622 282.288 C 255.196 278.521,255.168 229.752,253.590 226.719 C 250.337 220.468,245.864 218.750,232.838 218.750 L 222.656 218.750 222.656 118.499 C 222.656 6.333,223.063 14.283,216.963 7.353 C 210.527 0.041,199.123 -2.305,190.205 1.848 M319.871 1.477 C 315.274 3.565,311.142 7.486,308.739 12.039 L 306.641 16.016 306.422 62.623 L 306.203 109.229 295.094 109.513 C 282.591 109.831,280.514 110.496,276.798 115.368 L 274.609 118.238 274.609 145.312 L 274.609 172.387 276.798 175.257 C 280.515 180.130,282.589 180.794,295.106 181.113 L 306.227 181.396 306.434 282.690 L 306.641 383.984 308.739 387.961 C 317.731 405.002,343.372 403.863,350.007 386.129 C 352.358 379.846,352.444 277.042,350.101 274.149 C 347.936 271.475,343.364 271.648,340.914 274.497 L 339.063 276.650 339.063 328.207 C 339.063 384.299,339.215 382.298,334.676 385.869 C 331.848 388.093,326.433 388.070,323.274 385.821 C 318.509 382.428,318.750 388.057,318.750 280.103 L 318.750 181.250 328.906 181.250 L 339.063 181.250 339.063 217.082 C 339.063 258.004,338.910 257.031,345.339 257.031 C 351.801 257.031,351.563 258.550,351.563 217.431 L 351.563 181.250 361.744 181.250 C 372.590 181.250,375.962 180.466,379.556 177.111 C 383.541 173.390,383.594 172.975,383.594 145.313 C 383.594 117.650,383.541 117.235,379.556 113.514 C 375.962 110.159,372.590 109.375,361.744 109.375 L 351.563 109.375 351.563 63.701 C 351.563 11.702,351.696 12.886,345.125 6.462 C 338.631 0.113,327.647 -2.055,319.871 1.477 M205.770 14.131 C 210.429 17.797,210.156 11.238,210.156 119.492 L 210.156 218.750 200.000 218.750 L 189.844 218.750 189.844 119.492 C 189.844 11.238,189.571 17.797,194.230 14.131 C 197.070 11.898,202.930 11.898,205.770 14.131 M334.676 14.131 C 339.177 17.672,339.063 16.348,339.063 64.805 L 339.063 109.375 328.906 109.375 L 318.750 109.375 318.750 65.209 C 318.750 17.148,318.718 17.523,323.146 14.223 C 326.196 11.949,331.845 11.904,334.676 14.131 M112.891 145.313 L 112.891 168.359 71.094 168.359 L 29.297 168.359 29.089 146.104 C 28.975 133.863,29.053 123.401,29.263 122.855 C 29.566 122.065,38.164 121.903,71.267 122.063 L 112.891 122.266 112.891 145.313 M370.703 145.313 L 370.703 168.359 328.906 168.359 L 287.109 168.359 286.902 146.104 C 286.787 133.863,286.865 123.401,287.075 122.855 C 287.378 122.065,295.977 121.903,329.080 122.063 L 370.703 122.266 370.703 145.313 M81.250 280.103 C 81.250 388.057,81.491 382.428,76.726 385.821 C 73.567 388.070,68.152 388.093,65.324 385.869 C 60.664 382.203,60.938 388.762,60.938 280.508 L 60.938 181.250 71.094 181.250 L 81.250 181.250 81.250 280.103 M241.797 254.688 L 241.797 277.734 200.000 277.734 L 158.203 277.734 157.995 255.479 C 157.881 243.238,157.959 232.776,158.169 232.230 C 158.472 231.440,167.071 231.278,200.173 231.438 L 241.797 231.641 241.797 254.688 M210.156 335.195 C 210.156 383.652,210.271 382.328,205.770 385.869 C 202.930 388.102,197.070 388.102,194.230 385.869 C 189.729 382.328,189.844 383.652,189.844 335.195 L 189.844 290.625 200.000 290.625 L 210.156 290.625 210.156 335.195 " stroke="none" fill="#FFF4CF" fill-rule="evenodd"></path></g></svg>
