<svg id="svg" xmlns="http://www.w3.org/2000/svg" xmlns:xlink="http://www.w3.org/1999/xlink" width="400" height="400" viewBox="0, 0, 400,400"><g id="svgg"><path id="path0" d="M218.705 1.393 C 186.504 13.520,190.570 60.018,224.243 64.727 C 261.271 69.906,276.883 18.861,243.157 2.885 C 236.590 -0.225,224.897 -0.939,218.705 1.393 M189.870 80.920 C 181.118 83.309,177.146 86.189,153.637 107.191 C 149.407 110.971,145.529 114.063,145.020 114.063 C 144.511 114.063,133.665 109.316,120.918 103.516 C 93.007 90.813,89.618 90.282,82.418 97.483 L 80.393 99.507 86.498 101.511 C 101.689 106.498,115.554 121.151,117.683 134.466 C 118.287 138.244,117.716 137.846,131.641 144.178 C 151.122 153.036,151.331 152.980,173.828 132.892 C 182.422 125.218,189.561 119.034,189.693 119.150 C 189.825 119.266,187.452 133.759,184.420 151.358 C 181.387 168.957,178.906 183.761,178.906 184.256 C 178.906 184.926,191.787 185.156,229.297 185.156 C 257.012 185.156,279.688 184.888,279.688 184.560 C 279.688 184.233,277.241 169.921,274.252 152.756 C 271.262 135.592,268.952 121.413,269.117 121.247 C 269.283 121.081,275.745 126.581,283.477 133.469 C 304.695 152.368,300.841 151.870,339.365 140.692 C 377.062 129.754,380.217 127.558,377.467 114.165 C 374.483 99.633,367.626 98.654,334.848 108.084 L 311.493 114.803 302.506 106.815 C 269.601 77.572,276.475 80.125,230.078 79.916 C 200.269 79.781,193.412 79.952,189.870 80.920 M68.359 111.525 C 34.559 115.419,26.949 162.829,57.867 176.886 C 83.069 188.345,110.647 167.663,106.437 140.461 C 103.654 122.479,86.490 109.436,68.359 111.525 M41.406 195.614 C 33.720 197.819,27.699 202.935,24.292 210.156 L 22.266 214.453 22.022 261.719 C 21.738 316.716,21.866 318.093,27.957 325.391 C 34.665 333.427,38.537 334.526,62.097 335.084 L 81.616 335.547 62.097 349.173 C 31.245 370.711,31.429 370.530,30.669 379.994 C 29.553 393.900,43.733 404.272,56.543 398.919 C 60.513 397.261,158.656 328.423,161.394 325.376 C 166.985 319.156,167.089 306.888,161.600 301.045 C 160.716 300.104,160.215 298.974,160.488 298.533 C 160.760 298.093,160.238 294.112,159.329 289.687 C 153.797 262.776,159.166 233.799,170.441 229.716 C 178.408 226.830,182.795 221.070,182.808 213.477 L 182.813 210.938 233.146 210.938 L 283.480 210.938 285.100 208.879 C 287.352 206.016,287.218 201.991,284.790 199.563 L 282.862 197.635 229.126 197.989 C 199.572 198.183,172.856 198.344,169.759 198.347 C 164.616 198.351,161.601 199.205,135.077 208.167 L 106.027 217.983 81.523 208.798 C 68.045 203.747,57.334 199.509,57.719 199.380 C 58.104 199.252,64.939 199.866,72.907 200.745 C 80.875 201.624,88.209 202.332,89.205 202.318 L 91.016 202.292 89.063 200.641 C 82.494 195.091,53.786 192.063,41.406 195.614 M195.049 227.044 C 190.568 236.179,184.765 241.124,174.075 244.913 C 167.409 247.276,167.433 247.245,166.724 254.165 C 165.784 263.338,169.216 266.406,180.416 266.406 L 186.663 266.406 186.886 325.977 C 187.094 381.389,187.208 385.765,188.516 388.672 C 195.253 403.637,215.871 404.101,223.711 389.463 C 225.382 386.344,225.392 386.023,225.605 326.367 L 225.819 266.406 229.316 266.406 L 232.813 266.406 232.847 325.586 C 232.874 371.701,233.102 385.385,233.884 387.570 C 239.153 402.313,259.447 404.561,268.342 391.388 L 270.703 387.891 270.917 327.239 L 271.131 266.586 278.901 266.274 C 292.813 265.716,293.476 264.063,289.367 240.183 L 286.350 222.656 241.775 222.656 L 197.200 222.656 195.049 227.044 M73.491 239.883 C 107.700 252.850,103.375 252.503,127.930 244.250 C 138.779 240.603,147.656 237.858,147.656 238.151 C 147.656 238.443,147.292 239.910,146.847 241.411 C 144.489 249.362,143.501 257.283,143.484 268.359 C 143.468 278.614,143.856 282.648,145.791 292.383 L 146.218 294.531 121.546 294.531 L 96.875 294.531 96.875 280.125 L 96.875 265.718 72.070 248.383 C 47.574 231.264,45.391 229.688,46.187 229.688 C 46.410 229.688,58.697 234.276,73.491 239.883 " stroke="none" fill="#FFF4CF" fill-rule="evenodd"></path></g></svg>
