<svg id="svg" xmlns="http://www.w3.org/2000/svg" xmlns:xlink="http://www.w3.org/1999/xlink" width="400" height="400" viewBox="0, 0, 400,400"><g id="svgg"><path id="path0" d="M202.344 32.837 C 132.727 41.199,72.626 90.716,57.767 151.953 C 57.245 154.102,56.564 156.144,56.252 156.493 C 55.941 156.841,51.227 148.515,45.778 137.990 C 34.894 116.967,33.028 114.542,27.045 113.645 C 18.632 112.383,12.198 118.251,12.374 127.024 C 12.439 130.283,48.472 200.610,53.667 207.618 C 60.115 216.317,61.749 215.837,107.422 191.842 C 149.493 169.739,147.842 170.751,149.685 165.926 C 153.216 156.682,146.863 147.944,137.109 148.631 C 132.803 148.934,130.264 150.107,105.859 163.077 C 87.009 173.095,79.222 176.870,79.041 176.078 C 78.623 174.258,83.484 155.891,86.427 148.170 C 120.001 60.095,235.552 28.894,308.203 88.286 C 370.042 138.838,379.768 223.323,331.157 287.672 C 286.606 346.647,202.225 360.065,139.910 318.084 C 129.205 310.873,122.798 310.527,117.237 316.860 C 110.173 324.905,114.051 332.863,129.771 342.588 C 235.191 407.798,368.942 344.098,386.419 220.358 C 401.333 114.765,308.405 20.098,202.344 32.837 " stroke="none" fill="#FFF4CF" fill-rule="evenodd"></path></g></svg>
