<svg id="svg" xmlns="http://www.w3.org/2000/svg" xmlns:xlink="http://www.w3.org/1999/xlink" width="400" height="400" viewBox="0, 0, 400,400"><g id="svgg"><path id="path0" d="M186.807 1.235 C 173.262 4.877,161.582 16.505,157.496 30.415 C 156.388 34.187,156.247 44.514,156.219 123.384 L 156.188 212.109 154.634 208.995 C 149.148 197.995,135.367 193.403,123.992 198.785 C 117.920 201.657,115.628 204.664,106.796 221.344 C 97.283 239.309,99.079 237.641,74.668 251.176 L 54.244 262.500 48.701 262.500 C 43.254 262.500,43.141 262.459,42.168 260.109 C 39.775 254.331,37.264 253.516,21.875 253.516 C -1.983 253.516,0.000 246.892,-0.000 326.563 C -0.000 405.911,-1.855 399.448,21.030 399.820 C 36.050 400.064,38.688 399.232,42.014 393.204 L 43.797 389.970 50.219 392.338 C 53.751 393.640,59.629 395.809,63.281 397.157 L 69.922 399.609 122.496 399.826 C 173.055 400.034,175.200 399.984,178.490 398.529 C 181.742 397.091,182.078 397.080,185.291 398.313 C 189.498 399.926,360.271 400.734,367.783 399.175 C 381.896 396.248,395.057 383.491,398.804 369.108 C 400.620 362.136,400.620 37.864,398.804 30.892 C 395.151 16.868,383.132 4.849,369.108 1.196 C 362.402 -0.550,193.311 -0.515,186.807 1.235 M218.758 20.419 C 225.463 33.074,229.716 38.064,236.508 41.247 L 241.016 43.359 278.125 43.359 L 315.234 43.359 319.742 41.247 C 326.534 38.064,330.787 33.074,337.492 20.419 L 343.344 9.375 349.602 9.401 C 373.383 9.498,387.432 19.774,389.895 38.873 C 390.782 45.753,390.782 354.247,389.895 361.127 C 387.900 376.598,376.154 388.052,360.328 389.959 C 353.046 390.836,194.347 390.395,191.166 389.488 C 189.530 389.022,189.113 388.540,189.528 387.596 C 190.845 384.593,190.806 375.700,189.461 372.177 C 188.721 370.240,188.241 368.578,188.394 368.484 C 188.547 368.390,189.912 367.751,191.429 367.064 C 201.682 362.419,206.144 349.876,201.269 339.406 L 199.428 335.452 202.541 332.839 C 211.674 325.171,211.674 309.204,202.541 301.536 L 199.428 298.923 201.269 294.969 C 205.034 286.884,202.946 275.942,196.619 270.601 C 191.571 266.339,188.854 265.661,176.758 265.642 L 165.625 265.625 165.651 154.883 C 165.678 37.542,165.711 36.435,169.410 28.529 C 175.529 15.454,186.425 9.760,205.867 9.477 L 212.906 9.375 218.758 20.419 M331.250 9.788 C 331.250 10.820,322.401 26.343,320.905 27.936 C 319.982 28.918,317.274 30.681,314.887 31.853 L 310.547 33.984 278.125 33.984 L 245.703 33.984 241.204 31.775 C 238.730 30.560,235.849 28.443,234.801 27.069 C 232.913 24.593,225.000 10.665,225.000 9.817 C 225.000 9.574,248.906 9.375,278.125 9.375 C 307.344 9.375,331.250 9.561,331.250 9.788 M268.772 102.400 C 262.773 105.121,260.460 107.507,254.251 117.377 C 245.088 131.944,245.587 131.560,231.174 135.127 C 210.830 140.163,205.078 145.766,205.078 160.547 C 205.078 169.938,205.592 171.003,216.327 183.840 C 224.904 194.098,225.140 194.822,224.094 207.666 C 221.534 239.089,235.744 249.747,264.652 238.086 C 278.282 232.588,278.012 232.589,291.218 237.959 C 320.498 249.866,334.731 239.280,332.145 207.519 C 331.098 194.671,331.314 194.057,340.872 182.653 C 350.246 171.469,351.525 168.817,351.538 160.547 C 351.559 146.294,345.112 140.102,325.076 135.133 C 310.660 131.557,311.161 131.942,301.999 117.377 C 293.651 104.107,288.906 100.816,278.125 100.816 C 273.907 100.816,271.287 101.260,268.772 102.400 M285.753 113.150 C 287.099 114.108,290.901 119.188,294.203 124.438 C 303.867 139.807,305.138 140.741,322.187 145.000 C 344.920 150.680,347.529 158.672,332.483 176.540 C 321.338 189.776,320.686 191.748,321.966 208.355 C 323.817 232.390,317.273 237.256,295.120 228.321 C 279.604 222.062,276.646 222.062,261.130 228.321 C 238.955 237.265,232.501 232.452,234.264 208.288 C 235.495 191.416,234.992 189.935,223.255 175.900 C 208.616 158.393,211.465 150.637,234.661 144.847 C 251.314 140.691,251.807 140.306,263.558 122.309 C 271.199 110.606,278.151 107.737,285.753 113.150 M129.432 138.477 C 128.225 139.359,128.116 141.267,128.306 158.185 L 128.516 176.916 130.664 177.672 C 132.047 178.158,133.578 178.158,134.961 177.672 L 137.109 176.916 137.319 158.185 C 137.550 137.633,137.521 137.500,132.813 137.500 C 131.688 137.500,130.166 137.940,129.432 138.477 M79.063 166.563 C 77.829 167.796,77.856 173.033,79.102 174.020 C 81.589 175.992,109.051 187.500,111.270 187.500 C 115.236 187.500,117.655 181.488,114.648 179.105 C 108.313 174.081,81.126 164.499,79.063 166.563 M139.660 208.005 C 149.581 212.876,149.073 218.245,136.104 245.613 C 121.037 277.409,119.241 274.828,156.651 275.149 C 181.960 275.367,185.022 275.531,187.339 276.796 C 192.985 279.878,194.784 287.566,190.931 292.145 C 187.592 296.114,186.435 296.406,172.282 296.850 L 159.018 297.266 158.264 299.414 C 157.780 300.794,157.781 302.331,158.265 303.711 L 159.019 305.859 175.408 306.259 C 192.936 306.686,193.710 306.854,197.181 310.980 C 201.162 315.711,199.348 323.430,193.470 326.766 C 192.375 327.388,186.139 327.854,175.408 328.116 L 159.019 328.516 158.265 330.664 C 157.781 332.044,157.780 333.581,158.264 334.961 L 159.018 337.109 172.282 337.525 C 186.435 337.969,187.592 338.261,190.931 342.230 C 194.787 346.812,192.976 354.535,187.339 357.551 C 185.274 358.657,182.298 358.988,172.266 359.231 C 158.552 359.562,157.813 359.806,157.813 364.002 C 157.813 367.945,158.923 368.747,164.414 368.769 C 177.590 368.821,184.244 376.221,178.938 384.923 C 175.608 390.384,177.229 390.208,127.734 390.470 C 75.387 390.747,76.040 390.806,57.813 384.144 L 44.141 379.147 43.940 325.511 L 43.739 271.875 51.198 271.875 L 58.657 271.875 79.524 260.380 C 105.740 245.939,105.331 246.318,115.609 226.953 C 126.399 206.625,130.412 203.463,139.660 208.005 M156.250 246.484 L 156.250 265.625 147.201 265.625 C 142.223 265.625,138.268 265.326,138.411 264.960 C 139.200 262.947,155.891 227.378,156.055 227.362 C 156.162 227.352,156.250 235.957,156.250 246.484 M32.591 264.286 C 34.754 266.451,34.752 386.677,32.589 388.839 C 30.516 390.913,13.235 390.913,11.161 388.840 C 9.523 387.202,8.542 270.261,10.131 266.083 C 11.582 262.266,29.169 260.859,32.591 264.286 M241.563 350.938 C 240.350 352.150,240.350 357.225,241.563 358.438 C 242.912 359.787,313.338 359.787,314.687 358.438 C 315.203 357.922,315.625 356.234,315.625 354.688 C 315.625 353.141,315.203 351.453,314.687 350.937 C 313.338 349.588,242.912 349.588,241.563 350.938 " stroke="none" fill="#FFF4CF" fill-rule="evenodd"></path></g></svg>
