<svg id="svg" xmlns="http://www.w3.org/2000/svg" xmlns:xlink="http://www.w3.org/1999/xlink" width="400" height="400" viewBox="0, 0, 400,400"><g id="svgg"><path id="path0" d="M181.250 1.105 C 122.628 11.446,82.117 63.354,86.800 122.126 C 87.183 126.929,87.644 131.253,87.825 131.734 C 88.039 132.303,86.130 132.792,82.354 133.134 C 30.713 137.814,7.864 197.965,43.560 235.263 L 48.522 240.447 42.835 242.174 C 22.646 248.307,6.874 264.587,1.619 284.717 C -0.570 293.103,-0.925 382.985,1.210 388.111 C 2.806 391.943,7.440 396.707,11.328 398.513 C 16.501 400.917,157.259 400.785,162.245 398.372 C 166.455 396.334,171.313 390.895,172.519 386.870 C 174.339 380.793,173.766 292.941,171.857 285.477 C 166.436 264.278,151.407 248.494,130.637 242.185 L 124.985 240.468 130.764 234.326 C 135.078 229.739,137.513 226.239,140.377 220.506 L 144.212 212.829 150.427 215.777 C 181.562 230.551,218.438 230.551,249.573 215.777 L 255.788 212.829 259.623 220.506 C 262.489 226.244,264.921 229.739,269.252 234.342 L 275.046 240.501 270.544 241.810 C 249.073 248.051,233.653 263.932,228.143 285.477 C 226.234 292.941,225.661 380.793,227.481 386.870 C 228.687 390.895,233.545 396.334,237.755 398.372 C 242.147 400.498,382.858 400.981,387.869 398.888 C 391.857 397.221,397.411 391.709,398.821 388.019 C 400.953 382.435,400.174 288.956,397.940 282.422 C 391.072 262.330,376.648 248.092,357.165 242.174 L 351.478 240.447 356.440 235.263 C 368.899 222.245,373.042 211.673,373.014 192.969 C 372.966 160.259,350.632 136.123,317.646 133.134 C 313.870 132.792,311.961 132.303,312.175 131.734 C 312.356 131.253,312.817 126.931,313.199 122.129 C 317.731 65.266,279.797 14.471,223.438 1.934 C 215.528 0.175,189.433 -0.338,181.250 1.105 M216.701 15.240 C 270.200 24.569,307.542 77.001,298.158 129.611 C 297.187 135.055,297.101 135.144,290.463 137.540 C 270.249 144.838,254.582 166.837,253.336 189.674 L 252.898 197.707 247.889 200.508 C 218.694 216.835,181.228 216.791,151.910 200.396 L 147.102 197.707 146.664 189.674 C 145.418 166.837,129.751 144.838,109.537 137.540 C 102.899 135.144,102.813 135.055,101.842 129.611 C 90.077 63.657,150.325 3.665,216.701 15.240 M215.055 107.999 L 173.436 149.592 159.179 135.426 C 141.871 118.229,139.330 116.831,134.695 121.953 C 130.530 126.555,131.458 127.973,152.115 148.579 L 170.991 167.409 173.950 166.928 C 178.389 166.208,266.195 78.471,266.914 74.038 C 267.559 70.067,264.073 66.406,259.647 66.406 C 256.763 66.406,255.438 67.642,215.055 107.999 M100.105 149.196 C 132.710 159.320,143.405 200.045,119.967 224.823 C 95.394 250.802,52.381 240.410,42.441 206.092 C 32.332 171.191,65.511 138.453,100.105 149.196 M322.083 148.022 C 363.764 156.855,372.968 210.990,336.538 233.043 C 306.545 251.199,267.121 228.503,267.199 193.126 C 267.262 164.741,294.674 142.214,322.083 148.022 M122.813 254.758 C 135.867 257.443,148.715 267.571,154.538 279.766 C 159.354 289.852,159.375 290.102,159.375 338.465 L 159.375 382.321 157.676 384.129 C 156.054 385.856,155.474 385.938,144.786 385.938 L 133.594 385.938 133.569 348.242 C 133.543 308.495,133.597 309.110,129.934 307.159 C 127.044 305.620,124.257 306.091,121.815 308.534 L 119.531 310.817 119.531 348.377 L 119.531 385.938 86.740 385.938 L 53.950 385.938 53.733 347.979 L 53.516 310.020 51.324 308.135 C 48.041 305.312,41.682 306.276,40.329 309.801 C 40.062 310.496,39.844 327.912,39.844 348.501 L 39.844 385.938 28.761 385.938 C 18.458 385.938,17.552 385.818,15.871 384.239 L 14.062 382.540 14.062 338.063 C 14.063 288.665,14.028 289.060,19.303 278.583 C 24.775 267.716,37.205 257.989,49.388 255.039 C 54.788 253.731,116.672 253.495,122.813 254.758 M349.376 254.758 C 361.739 257.301,374.777 267.212,380.629 278.516 C 385.959 288.810,385.938 288.567,385.938 337.953 L 385.938 382.321 384.239 384.129 C 382.617 385.856,382.037 385.938,371.348 385.938 L 360.156 385.938 360.156 348.501 C 360.156 327.912,359.938 310.496,359.671 309.801 C 358.318 306.276,351.959 305.312,348.676 308.135 L 346.484 310.020 346.267 347.979 L 346.050 385.938 313.260 385.938 L 280.469 385.938 280.469 348.377 L 280.469 310.817 278.185 308.534 C 275.743 306.091,272.956 305.620,270.066 307.159 C 266.403 309.110,266.457 308.495,266.431 348.242 L 266.406 385.938 255.324 385.938 C 245.020 385.938,244.114 385.818,242.433 384.239 L 240.625 382.540 240.625 338.574 C 240.625 309.894,240.921 293.169,241.477 290.468 C 244.847 274.084,259.504 259.021,275.951 255.039 C 281.350 253.731,343.235 253.495,349.376 254.758 " stroke="none" fill="#DA1212" fill-rule="evenodd"></path></g></svg>