<svg id="svg" xmlns="http://www.w3.org/2000/svg" xmlns:xlink="http://www.w3.org/1999/xlink" width="400" height="400" viewBox="0, 0, 400,400"><g id="svgg"><path id="path0" d="M174.609 1.107 C 170.823 2.797,168.706 5.704,158.039 23.860 C 141.990 51.179,141.548 47.256,163.999 76.870 C 172.712 88.362,179.644 97.960,179.404 98.200 C 179.165 98.439,162.519 103.326,142.414 109.060 C 122.309 114.794,104.805 119.982,103.516 120.590 C 100.028 122.235,80.562 158.942,79.930 165.065 C 78.804 175.970,84.961 184.467,96.484 187.910 L 99.609 188.844 99.796 216.492 L 99.983 244.141 87.296 250.874 C 80.318 254.578,73.906 257.906,73.047 258.271 C 72.188 258.636,58.652 259.121,42.969 259.350 L 14.453 259.766 10.258 262.089 C 0.218 267.650,-0.000 268.602,-0.000 306.853 L -0.000 338.756 2.057 342.883 C 7.050 352.903,10.833 353.901,43.901 353.925 C 75.353 353.948,63.125 351.087,146.094 377.842 L 215.234 400.138 223.092 399.859 C 230.080 399.612,231.507 399.302,235.983 397.061 C 241.487 394.304,392.516 279.904,395.266 276.409 C 406.915 261.599,396.707 239.755,378.196 239.878 C 371.222 239.924,369.576 240.644,354.452 250.253 C 347.232 254.841,341.164 258.594,340.967 258.594 C 340.770 258.594,340.700 242.891,340.812 223.698 L 341.016 188.802 345.402 187.340 C 356.652 183.590,362.928 171.584,359.244 160.859 C 357.976 157.168,339.198 122.179,337.913 121.112 C 337.337 120.634,319.735 115.348,298.797 109.366 C 277.860 103.384,260.595 98.356,260.432 98.192 C 260.268 98.029,267.043 88.789,275.487 77.658 C 298.304 47.581,297.860 51.013,282.347 24.592 C 270.995 5.257,269.197 2.809,265.064 1.062 C 261.408 -0.483,178.079 -0.442,174.609 1.107 M193.016 25.586 C 198.282 31.924,203.117 37.725,203.760 38.477 C 204.869 39.773,203.917 39.844,185.250 39.844 L 165.570 39.844 166.491 38.086 C 171.883 27.798,180.746 14.063,181.992 14.063 C 182.906 14.063,186.981 18.322,193.016 25.586 M236.576 15.430 C 235.934 16.182,231.977 20.928,227.782 25.977 C 223.587 31.025,220.070 35.156,219.967 35.156 C 219.865 35.156,217.372 32.256,214.428 28.711 C 211.484 25.166,207.518 20.420,205.615 18.164 L 202.154 14.063 219.948 14.063 C 236.818 14.063,237.682 14.133,236.576 15.430 M267.029 26.823 C 271.054 33.627,274.195 39.346,274.009 39.533 C 273.823 39.719,265.049 39.777,254.512 39.662 L 235.355 39.453 245.951 26.723 C 259.107 10.917,257.613 10.910,267.029 26.823 M213.281 86.018 L 213.281 118.130 209.158 112.776 C 206.891 109.831,196.290 95.820,185.601 81.641 C 174.912 67.461,165.826 55.420,165.410 54.883 C 164.807 54.106,169.632 53.906,188.967 53.906 L 213.281 53.906 213.281 86.018 M274.509 54.883 C 274.048 55.655,228.684 115.870,227.620 117.122 C 227.468 117.301,227.344 103.151,227.344 85.677 L 227.344 53.906 251.218 53.906 C 270.108 53.906,274.970 54.110,274.509 54.883 M199.495 123.802 C 217.303 147.211,223.162 147.048,241.419 122.639 C 246.233 116.203,250.666 110.938,251.271 110.938 C 252.558 110.938,304.610 125.716,306.056 126.492 C 307.501 127.267,220.768 152.643,218.583 152.084 C 211.858 150.365,132.954 126.942,133.168 126.728 C 133.852 126.044,187.283 111.042,188.558 111.176 C 189.419 111.266,193.850 116.382,199.495 123.802 M159.477 149.624 C 184.987 157.127,206.465 163.532,207.205 163.859 C 209.188 164.735,187.178 197.852,183.839 199.016 C 180.497 200.181,98.201 174.395,95.438 171.317 C 92.804 168.383,93.224 167.078,102.253 150.165 C 108.888 137.735,110.542 135.173,111.696 135.540 C 112.465 135.784,133.967 142.122,159.477 149.624 M338.028 150.701 C 346.603 166.715,347.095 168.329,344.336 171.402 C 342.870 173.034,267.469 197.815,259.375 199.324 C 255.599 200.028,254.225 198.540,242.737 181.304 L 231.292 164.132 235.763 162.858 C 238.222 162.158,260.098 155.680,284.375 148.463 C 308.652 141.246,328.841 135.408,329.239 135.489 C 329.636 135.571,333.591 142.416,338.028 150.701 M212.979 245.094 C 212.803 245.270,194.606 242.545,172.541 239.038 C 129.331 232.172,127.260 232.021,118.227 235.070 L 114.063 236.476 114.063 215.113 C 114.063 203.363,114.270 193.750,114.523 193.750 C 114.777 193.750,128.927 198.111,145.969 203.440 C 191.378 217.642,190.222 217.792,204.859 195.821 L 212.891 183.765 213.095 214.269 C 213.208 231.046,213.156 244.917,212.979 245.094 M248.677 211.274 C 256.474 215.227,258.249 214.927,293.991 203.603 C 311.096 198.184,325.425 193.750,325.834 193.750 C 326.297 193.750,326.501 207.788,326.375 230.953 L 326.172 268.156 317.710 273.531 C 308.037 279.676,308.596 279.454,308.586 277.148 C 308.574 274.274,305.079 267.631,301.915 264.467 C 296.520 259.072,293.471 258.221,261.254 253.123 C 244.967 250.545,230.674 248.232,229.492 247.984 L 227.344 247.532 227.344 215.782 L 227.344 184.033 235.742 196.503 C 243.687 208.300,244.386 209.098,248.677 211.274 M208.110 259.011 C 250.271 265.685,285.891 271.508,287.266 271.949 C 296.227 274.826,297.261 287.187,288.898 291.481 C 286.114 292.910,283.339 292.969,218.434 292.969 L 150.868 292.969 148.694 294.839 C 145.595 297.504,145.595 302.496,148.694 305.161 C 150.840 307.007,151.084 307.031,167.472 307.031 L 184.076 307.031 204.465 322.531 C 224.902 338.068,226.957 339.388,232.031 340.239 C 237.340 341.129,241.851 338.538,308.235 296.472 C 344.741 273.339,375.581 254.257,376.769 254.069 C 383.420 253.012,388.229 260.440,384.678 266.286 C 383.186 268.742,233.454 382.588,229.136 384.550 C 222.632 387.505,222.621 387.502,149.705 363.992 C 67.590 337.516,77.777 339.874,45.469 339.857 C 18.205 339.843,15.804 339.566,14.548 336.293 C 13.091 332.498,14.055 277.351,15.605 275.801 C 17.887 273.519,18.456 273.472,47.266 273.220 C 79.008 272.941,74.936 273.975,101.588 259.425 C 119.151 249.838,125.393 247.052,129.595 246.929 C 130.618 246.899,165.950 252.336,208.110 259.011 M263.633 307.690 C 263.033 308.222,238.053 324.029,234.608 326.056 C 233.815 326.522,208.594 308.392,208.594 307.355 C 208.594 307.177,221.145 307.031,236.484 307.031 C 251.824 307.031,264.041 307.328,263.633 307.690 " stroke="none" fill="#FFF4CF" fill-rule="evenodd"></path></g></svg>
